solid OpenSCAD_Model
  facet normal -0.702713 -0.111299 0.702713
    outer loop
      vertex 8.89 5 1.99
      vertex 8.70389 6.17504 1.99
      vertex 8.5 5 1.6
    endloop
  endfacet
  facet normal -0.702715 -0.111292 0.702713
    outer loop
      vertex 8.3287 6.08156 1.6
      vertex 8.70389 6.17504 1.99
      vertex 8.69961 6.20208 1.99
    endloop
  endfacet
  facet normal -0.702713 -0.111299 0.702713
    outer loop
      vertex 8.70389 6.17504 1.99
      vertex 8.3287 6.08156 1.6
      vertex 8.5 5 1.6
    endloop
  endfacet
  facet normal -0.702713 0.111299 0.702713
    outer loop
      vertex 8.3287 3.91844 1.6
      vertex 8.70389 3.82496 1.99
      vertex 8.5 5 1.6
    endloop
  endfacet
  facet normal -0.702715 0.111292 0.702713
    outer loop
      vertex 8.70389 3.82496 1.99
      vertex 8.3287 3.91844 1.6
      vertex 8.69961 3.79792 1.99
    endloop
  endfacet
  facet normal 0.702713 0.111299 0.702714
    outer loop
      vertex 1.29611 3.82496 1.99
      vertex 1.6713 3.91844 1.6
      vertex 1.5 5 1.6
    endloop
  endfacet
  facet normal 0.702713 0.111301 0.702714
    outer loop
      vertex 1.6713 3.91844 1.6
      vertex 1.29611 3.82496 1.99
      vertex 1.30039 3.79792 1.99
    endloop
  endfacet
  facet normal -0.503088 0.503087 0.702713
    outer loop
      vertex 7.83156 2.94275 1.6
      vertex 7.95869 2.52513 1.99
      vertex 8.14708 2.71352 1.99
    endloop
  endfacet
  facet normal -0.503087 0.503087 0.702714
    outer loop
      vertex 7.95869 2.52513 1.99
      vertex 7.83156 2.94275 1.6
      vertex 7.41393 2.52513 1.6
    endloop
  endfacet
  facet normal -0.633927 0.323002 0.702713
    outer loop
      vertex 8.14708 2.71352 1.99
      vertex 8.68718 3.77353 1.99
      vertex 7.83156 2.94275 1.6
    endloop
  endfacet
  facet normal -0.702713 0.111299 0.702713
    outer loop
      vertex 8.70389 3.82496 1.99
      vertex 8.89 5 1.99
      vertex 8.5 5 1.6
    endloop
  endfacet
  facet normal 0.633927 0.323002 0.702714
    outer loop
      vertex 1.85292 2.71352 1.99
      vertex 2.16844 2.94275 1.6
      vertex 1.31282 3.77353 1.99
    endloop
  endfacet
  facet normal 0.702713 -0.111299 0.702713
    outer loop
      vertex 1.5 5 1.6
      vertex 1.29611 6.17504 1.99
      vertex 1.11 5 1.99
    endloop
  endfacet
  facet normal 0.702713 0.111299 0.702713
    outer loop
      vertex 1.29611 3.82496 1.99
      vertex 1.5 5 1.6
      vertex 1.11 5 1.99
    endloop
  endfacet
  facet normal -0.633929 0.322997 0.702714
    outer loop
      vertex 8.3287 3.91844 1.6
      vertex 8.68718 3.77353 1.99
      vertex 8.69961 3.79792 1.99
    endloop
  endfacet
  facet normal -0.633927 0.323002 0.702714
    outer loop
      vertex 8.68718 3.77353 1.99
      vertex 8.3287 3.91844 1.6
      vertex 7.83156 2.94275 1.6
    endloop
  endfacet
  facet normal 0.633927 0.323002 0.702714
    outer loop
      vertex 1.6713 3.91844 1.6
      vertex 1.31282 3.77353 1.99
      vertex 2.16844 2.94275 1.6
    endloop
  endfacet
  facet normal 0.633927 0.323002 0.702714
    outer loop
      vertex 1.31282 3.77353 1.99
      vertex 1.6713 3.91844 1.6
      vertex 1.30039 3.79792 1.99
    endloop
  endfacet
  facet normal 0.503087 0.503087 0.702714
    outer loop
      vertex 2.16844 2.94275 1.6
      vertex 2.04131 2.52513 1.99
      vertex 2.58607 2.52513 1.6
    endloop
  endfacet
  facet normal 0.503087 0.503087 0.702714
    outer loop
      vertex 2.04131 2.52513 1.99
      vertex 2.16844 2.94275 1.6
      vertex 1.85292 2.71352 1.99
    endloop
  endfacet
  facet normal 0.503087 -0.503087 0.702714
    outer loop
      vertex 2.04131 7.47487 1.99
      vertex 2.16844 7.05725 1.6
      vertex 2.58607 7.47487 1.6
    endloop
  endfacet
  facet normal 0.503087 -0.503087 0.702714
    outer loop
      vertex 2.16844 7.05725 1.6
      vertex 2.04131 7.47487 1.99
      vertex 1.85292 7.28648 1.99
    endloop
  endfacet
  facet normal 0.633927 -0.323002 0.702714
    outer loop
      vertex 2.16844 7.05725 1.6
      vertex 1.85292 7.28648 1.99
      vertex 1.31282 6.22647 1.99
    endloop
  endfacet
  facet normal 0.702713 -0.111301 0.702714
    outer loop
      vertex 1.29611 6.17504 1.99
      vertex 1.6713 6.08156 1.6
      vertex 1.30039 6.20208 1.99
    endloop
  endfacet
  facet normal 0.702713 -0.111299 0.702714
    outer loop
      vertex 1.6713 6.08156 1.6
      vertex 1.29611 6.17504 1.99
      vertex 1.5 5 1.6
    endloop
  endfacet
  facet normal -0.503088 -0.503087 0.702713
    outer loop
      vertex 7.95869 7.47487 1.99
      vertex 7.83156 7.05725 1.6
      vertex 8.14708 7.28648 1.99
    endloop
  endfacet
  facet normal -0.503087 -0.503087 0.702714
    outer loop
      vertex 7.83156 7.05725 1.6
      vertex 7.95869 7.47487 1.99
      vertex 7.41393 7.47487 1.6
    endloop
  endfacet
  facet normal 0.633927 -0.323002 0.702714
    outer loop
      vertex 1.31282 6.22647 1.99
      vertex 1.6713 6.08156 1.6
      vertex 2.16844 7.05725 1.6
    endloop
  endfacet
  facet normal 0.633926 -0.323005 0.702714
    outer loop
      vertex 1.6713 6.08156 1.6
      vertex 1.31282 6.22647 1.99
      vertex 1.30039 6.20208 1.99
    endloop
  endfacet
  facet normal -0.633927 -0.323002 0.702713
    outer loop
      vertex 8.68718 6.22647 1.99
      vertex 8.14708 7.28648 1.99
      vertex 7.83156 7.05725 1.6
    endloop
  endfacet
  facet normal -0.633928 -0.323 0.702714
    outer loop
      vertex 8.68718 6.22647 1.99
      vertex 8.3287 6.08156 1.6
      vertex 8.69961 6.20208 1.99
    endloop
  endfacet
  facet normal -0.633927 -0.323002 0.702714
    outer loop
      vertex 8.3287 6.08156 1.6
      vertex 8.68718 6.22647 1.99
      vertex 7.83156 7.05725 1.6
    endloop
  endfacet
  facet normal -0.987688 -0.156435 0
    outer loop
      vertex 8.9 5 1.99
      vertex 8.70912 6.20517 3.01
      vertex 8.70912 6.20517 1.99
    endloop
  endfacet
  facet normal -0.987688 -0.156435 0
    outer loop
      vertex 8.70912 6.20517 3.01
      vertex 8.9 5 1.99
      vertex 8.9 5 3.01
    endloop
  endfacet
  facet normal 0.987688 -0.156435 0
    outer loop
      vertex 1.1 5 3.01
      vertex 1.29088 6.20517 1.99
      vertex 1.29088 6.20517 3.01
    endloop
  endfacet
  facet normal 0.987688 -0.156435 0
    outer loop
      vertex 1.29088 6.20517 1.99
      vertex 1.1 5 3.01
      vertex 1.1 5 1.99
    endloop
  endfacet
  facet normal -0 0 1
    outer loop
      vertex 8.70389 6.17504 1.99
      vertex 8.9 5 1.99
      vertex 8.70912 6.20517 1.99
    endloop
  endfacet
  facet normal 0 0 1
    outer loop
      vertex 8.9 5 1.99
      vertex 8.70389 6.17504 1.99
      vertex 8.89 5 1.99
    endloop
  endfacet
  facet normal 0 0 1
    outer loop
      vertex 8.70912 6.20517 1.99
      vertex 8.69961 6.20208 1.99
      vertex 8.70389 6.17504 1.99
    endloop
  endfacet
  facet normal 0 0 1
    outer loop
      vertex 8.70912 6.20517 1.99
      vertex 8.68718 6.22647 1.99
      vertex 8.69961 6.20208 1.99
    endloop
  endfacet
  facet normal 0 0 1
    outer loop
      vertex 8.15517 7.29236 1.99
      vertex 8.68718 6.22647 1.99
      vertex 8.70912 6.20517 1.99
    endloop
  endfacet
  facet normal 0 0 1
    outer loop
      vertex 8.15517 7.29236 1.99
      vertex 8.14708 7.28648 1.99
      vertex 8.68718 6.22647 1.99
    endloop
  endfacet
  facet normal 0 0 1
    outer loop
      vertex 7.97265 7.47487 1.99
      vertex 8.14708 7.28648 1.99
      vertex 8.15517 7.29236 1.99
    endloop
  endfacet
  facet normal 0 0 1
    outer loop
      vertex 8.14708 7.28648 1.99
      vertex 7.97265 7.47487 1.99
      vertex 7.95869 7.47487 1.99
    endloop
  endfacet
  facet normal 0 0 1
    outer loop
      vertex 8.70389 3.82496 1.99
      vertex 8.9 5 1.99
      vertex 8.89 5 1.99
    endloop
  endfacet
  facet normal 0 0 1
    outer loop
      vertex 8.9 5 1.99
      vertex 8.70389 3.82496 1.99
      vertex 8.70912 3.79483 1.99
    endloop
  endfacet
  facet normal -0 0 1
    outer loop
      vertex 8.69961 3.79792 1.99
      vertex 8.70912 3.79483 1.99
      vertex 8.70389 3.82496 1.99
    endloop
  endfacet
  facet normal 0 0 1
    outer loop
      vertex 8.68718 3.77353 1.99
      vertex 8.70912 3.79483 1.99
      vertex 8.69961 3.79792 1.99
    endloop
  endfacet
  facet normal -0 0 1
    outer loop
      vertex 8.68718 3.77353 1.99
      vertex 8.15517 2.70764 1.99
      vertex 8.70912 3.79483 1.99
    endloop
  endfacet
  facet normal -0 0 1
    outer loop
      vertex 8.14708 2.71352 1.99
      vertex 8.15517 2.70764 1.99
      vertex 8.68718 3.77353 1.99
    endloop
  endfacet
  facet normal 0 0 1
    outer loop
      vertex 8.14708 2.71352 1.99
      vertex 7.97265 2.52513 1.99
      vertex 8.15517 2.70764 1.99
    endloop
  endfacet
  facet normal 0 -0 1
    outer loop
      vertex 7.97265 2.52513 1.99
      vertex 8.14708 2.71352 1.99
      vertex 7.95869 2.52513 1.99
    endloop
  endfacet
  facet normal -0 0 1
    outer loop
      vertex 2.02735 7.47487 1.99
      vertex 1.85292 7.28648 1.99
      vertex 2.04131 7.47487 1.99
    endloop
  endfacet
  facet normal -0 0 1
    outer loop
      vertex 1.84483 7.29236 1.99
      vertex 1.85292 7.28648 1.99
      vertex 2.02735 7.47487 1.99
    endloop
  endfacet
  facet normal 0 0 1
    outer loop
      vertex 1.84483 7.29236 1.99
      vertex 1.31282 6.22647 1.99
      vertex 1.85292 7.28648 1.99
    endloop
  endfacet
  facet normal 0 0 1
    outer loop
      vertex 1.29088 6.20517 1.99
      vertex 1.31282 6.22647 1.99
      vertex 1.84483 7.29236 1.99
    endloop
  endfacet
  facet normal 0 0 1
    outer loop
      vertex 1.31282 6.22647 1.99
      vertex 1.29088 6.20517 1.99
      vertex 1.30039 6.20208 1.99
    endloop
  endfacet
  facet normal 0 0 1
    outer loop
      vertex 1.29088 6.20517 1.99
      vertex 1.29611 6.17504 1.99
      vertex 1.30039 6.20208 1.99
    endloop
  endfacet
  facet normal 0 0 1
    outer loop
      vertex 1.1 5 1.99
      vertex 1.29611 6.17504 1.99
      vertex 1.29088 6.20517 1.99
    endloop
  endfacet
  facet normal 0 0 1
    outer loop
      vertex 1.29611 6.17504 1.99
      vertex 1.1 5 1.99
      vertex 1.11 5 1.99
    endloop
  endfacet
  facet normal 0 0 1
    outer loop
      vertex 1.85292 2.71352 1.99
      vertex 2.02735 2.52513 1.99
      vertex 2.04131 2.52513 1.99
    endloop
  endfacet
  facet normal 0 0 1
    outer loop
      vertex 1.85292 2.71352 1.99
      vertex 1.84483 2.70764 1.99
      vertex 2.02735 2.52513 1.99
    endloop
  endfacet
  facet normal 0 0 1
    outer loop
      vertex 1.31282 3.77353 1.99
      vertex 1.84483 2.70764 1.99
      vertex 1.85292 2.71352 1.99
    endloop
  endfacet
  facet normal -0 0 1
    outer loop
      vertex 1.29088 3.79483 1.99
      vertex 1.31282 3.77353 1.99
      vertex 1.30039 3.79792 1.99
    endloop
  endfacet
  facet normal 0 0 1
    outer loop
      vertex 1.31282 3.77353 1.99
      vertex 1.29088 3.79483 1.99
      vertex 1.84483 2.70764 1.99
    endloop
  endfacet
  facet normal 0 0 1
    outer loop
      vertex 1.29611 3.82496 1.99
      vertex 1.29088 3.79483 1.99
      vertex 1.30039 3.79792 1.99
    endloop
  endfacet
  facet normal -0 0 1
    outer loop
      vertex 1.1 5 1.99
      vertex 1.29611 3.82496 1.99
      vertex 1.11 5 1.99
    endloop
  endfacet
  facet normal 0 0 1
    outer loop
      vertex 1.29611 3.82496 1.99
      vertex 1.1 5 1.99
      vertex 1.29088 3.79483 1.99
    endloop
  endfacet
  facet normal -0.707107 -0.707107 0
    outer loop
      vertex 8.15517 7.29236 1.99
      vertex 7.97265 7.47487 3.01
      vertex 7.97265 7.47487 1.99
    endloop
  endfacet
  facet normal -0.707107 -0.707107 0
    outer loop
      vertex 7.97265 7.47487 3.01
      vertex 8.15517 7.29236 1.99
      vertex 8.15517 7.29236 3.01
    endloop
  endfacet
  facet normal -0.891007 -0.45399 0
    outer loop
      vertex 8.70912 6.20517 1.99
      vertex 8.15517 7.29236 3.01
      vertex 8.15517 7.29236 1.99
    endloop
  endfacet
  facet normal -0.891007 -0.45399 0
    outer loop
      vertex 8.15517 7.29236 3.01
      vertex 8.70912 6.20517 1.99
      vertex 8.70912 6.20517 3.01
    endloop
  endfacet
  facet normal 0.707107 -0.707107 0
    outer loop
      vertex 1.84483 7.29236 3.01
      vertex 2.02735 7.47487 1.99
      vertex 2.02735 7.47487 3.01
    endloop
  endfacet
  facet normal 0.707107 -0.707107 0
    outer loop
      vertex 2.02735 7.47487 1.99
      vertex 1.84483 7.29236 3.01
      vertex 1.84483 7.29236 1.99
    endloop
  endfacet
  facet normal -0.891007 0.45399 0
    outer loop
      vertex 8.15517 2.70764 1.99
      vertex 8.70912 3.79483 3.01
      vertex 8.70912 3.79483 1.99
    endloop
  endfacet
  facet normal -0.891007 0.45399 0
    outer loop
      vertex 8.70912 3.79483 3.01
      vertex 8.15517 2.70764 1.99
      vertex 8.15517 2.70764 3.01
    endloop
  endfacet
  facet normal 0.707107 0.707107 0
    outer loop
      vertex 2.02735 2.52513 3.01
      vertex 1.84483 2.70764 1.99
      vertex 1.84483 2.70764 3.01
    endloop
  endfacet
  facet normal 0.707107 0.707107 0
    outer loop
      vertex 1.84483 2.70764 1.99
      vertex 2.02735 2.52513 3.01
      vertex 2.02735 2.52513 1.99
    endloop
  endfacet
  facet normal 0.987688 0.156435 0
    outer loop
      vertex 1.29088 3.79483 3.01
      vertex 1.1 5 1.99
      vertex 1.1 5 3.01
    endloop
  endfacet
  facet normal 0.987688 0.156435 0
    outer loop
      vertex 1.1 5 1.99
      vertex 1.29088 3.79483 3.01
      vertex 1.29088 3.79483 1.99
    endloop
  endfacet
  facet normal 0.891007 -0.45399 0
    outer loop
      vertex 1.29088 6.20517 3.01
      vertex 1.84483 7.29236 1.99
      vertex 1.84483 7.29236 3.01
    endloop
  endfacet
  facet normal 0.891007 -0.45399 0
    outer loop
      vertex 1.84483 7.29236 1.99
      vertex 1.29088 6.20517 3.01
      vertex 1.29088 6.20517 1.99
    endloop
  endfacet
  facet normal 0 0 -1
    outer loop
      vertex 8.7087 3.79724 3.01
      vertex 8.9 5 3.01
      vertex 8.70912 3.79483 3.01
    endloop
  endfacet
  facet normal -0 0 -1
    outer loop
      vertex 8.9 5 3.01
      vertex 8.7087 3.79724 3.01
      vertex 8.8992 5 3.01
    endloop
  endfacet
  facet normal 0 0 -1
    outer loop
      vertex 8.70912 3.79483 3.01
      vertex 8.70836 3.79508 3.01
      vertex 8.7087 3.79724 3.01
    endloop
  endfacet
  facet normal -0 0 -1
    outer loop
      vertex 8.70912 3.79483 3.01
      vertex 8.70737 3.79313 3.01
      vertex 8.70836 3.79508 3.01
    endloop
  endfacet
  facet normal 0 0 -1
    outer loop
      vertex 8.15517 2.70764 3.01
      vertex 8.70737 3.79313 3.01
      vertex 8.70912 3.79483 3.01
    endloop
  endfacet
  facet normal 0 0 -1
    outer loop
      vertex 8.15517 2.70764 3.01
      vertex 8.15452 2.70811 3.01
      vertex 8.70737 3.79313 3.01
    endloop
  endfacet
  facet normal 0 0 -1
    outer loop
      vertex 7.97265 2.52513 3.01
      vertex 8.15452 2.70811 3.01
      vertex 8.15517 2.70764 3.01
    endloop
  endfacet
  facet normal 0 0 -1
    outer loop
      vertex 8.15452 2.70811 3.01
      vertex 7.97265 2.52513 3.01
      vertex 7.97154 2.52513 3.01
    endloop
  endfacet
  facet normal 0 0 -1
    outer loop
      vertex 8.7087 6.20276 3.01
      vertex 8.9 5 3.01
      vertex 8.8992 5 3.01
    endloop
  endfacet
  facet normal 0 0 -1
    outer loop
      vertex 8.9 5 3.01
      vertex 8.7087 6.20276 3.01
      vertex 8.70912 6.20517 3.01
    endloop
  endfacet
  facet normal 0 0 -1
    outer loop
      vertex 8.70836 6.20492 3.01
      vertex 8.70912 6.20517 3.01
      vertex 8.7087 6.20276 3.01
    endloop
  endfacet
  facet normal 0 0 -1
    outer loop
      vertex 8.70737 6.20687 3.01
      vertex 8.70912 6.20517 3.01
      vertex 8.70836 6.20492 3.01
    endloop
  endfacet
  facet normal 0 0 -1
    outer loop
      vertex 8.70737 6.20687 3.01
      vertex 8.15517 7.29236 3.01
      vertex 8.70912 6.20517 3.01
    endloop
  endfacet
  facet normal 0 0 -1
    outer loop
      vertex 8.15452 7.29189 3.01
      vertex 8.15517 7.29236 3.01
      vertex 8.70737 6.20687 3.01
    endloop
  endfacet
  facet normal 0 0 -1
    outer loop
      vertex 8.15452 7.29189 3.01
      vertex 7.97265 7.47487 3.01
      vertex 8.15517 7.29236 3.01
    endloop
  endfacet
  facet normal -0 -0 -1
    outer loop
      vertex 7.97265 7.47487 3.01
      vertex 8.15452 7.29189 3.01
      vertex 7.97154 7.47487 3.01
    endloop
  endfacet
  facet normal 0 0 -1
    outer loop
      vertex 2.02735 2.52513 3.01
      vertex 1.84548 2.70811 3.01
      vertex 2.02846 2.52513 3.01
    endloop
  endfacet
  facet normal 0 0 -1
    outer loop
      vertex 1.84483 2.70764 3.01
      vertex 1.84548 2.70811 3.01
      vertex 2.02735 2.52513 3.01
    endloop
  endfacet
  facet normal 0 0 -1
    outer loop
      vertex 1.84483 2.70764 3.01
      vertex 1.29264 3.79313 3.01
      vertex 1.84548 2.70811 3.01
    endloop
  endfacet
  facet normal 0 0 -1
    outer loop
      vertex 1.29088 3.79483 3.01
      vertex 1.29264 3.79313 3.01
      vertex 1.84483 2.70764 3.01
    endloop
  endfacet
  facet normal 0 0 -1
    outer loop
      vertex 1.29264 3.79313 3.01
      vertex 1.29088 3.79483 3.01
      vertex 1.29164 3.79508 3.01
    endloop
  endfacet
  facet normal 0 0 -1
    outer loop
      vertex 1.29088 3.79483 3.01
      vertex 1.2913 3.79724 3.01
      vertex 1.29164 3.79508 3.01
    endloop
  endfacet
  facet normal 0 0 -1
    outer loop
      vertex 1.1 5 3.01
      vertex 1.2913 3.79724 3.01
      vertex 1.29088 3.79483 3.01
    endloop
  endfacet
  facet normal 0 0 -1
    outer loop
      vertex 1.2913 3.79724 3.01
      vertex 1.1 5 3.01
      vertex 1.1008 5 3.01
    endloop
  endfacet
  facet normal 0 0 -1
    outer loop
      vertex 1.84548 7.29189 3.01
      vertex 2.02735 7.47487 3.01
      vertex 2.02846 7.47487 3.01
    endloop
  endfacet
  facet normal 0 0 -1
    outer loop
      vertex 1.84548 7.29189 3.01
      vertex 1.84483 7.29236 3.01
      vertex 2.02735 7.47487 3.01
    endloop
  endfacet
  facet normal 0 0 -1
    outer loop
      vertex 1.29264 6.20687 3.01
      vertex 1.84483 7.29236 3.01
      vertex 1.84548 7.29189 3.01
    endloop
  endfacet
  facet normal 0 0 -1
    outer loop
      vertex 1.29088 6.20517 3.01
      vertex 1.29264 6.20687 3.01
      vertex 1.29164 6.20492 3.01
    endloop
  endfacet
  facet normal -0 0 -1
    outer loop
      vertex 1.29264 6.20687 3.01
      vertex 1.29088 6.20517 3.01
      vertex 1.84483 7.29236 3.01
    endloop
  endfacet
  facet normal 0 0 -1
    outer loop
      vertex 1.2913 6.20276 3.01
      vertex 1.29088 6.20517 3.01
      vertex 1.29164 6.20492 3.01
    endloop
  endfacet
  facet normal 0 0 -1
    outer loop
      vertex 1.1 5 3.01
      vertex 1.2913 6.20276 3.01
      vertex 1.1008 5 3.01
    endloop
  endfacet
  facet normal -0 0 -1
    outer loop
      vertex 1.2913 6.20276 3.01
      vertex 1.1 5 3.01
      vertex 1.29088 6.20517 3.01
    endloop
  endfacet
  facet normal -0.987688 0.156435 0
    outer loop
      vertex 8.70912 3.79483 1.99
      vertex 8.9 5 3.01
      vertex 8.9 5 1.99
    endloop
  endfacet
  facet normal -0.987688 0.156435 0
    outer loop
      vertex 8.9 5 3.01
      vertex 8.70912 3.79483 1.99
      vertex 8.70912 3.79483 3.01
    endloop
  endfacet
  facet normal -0.707107 0.707107 0
    outer loop
      vertex 7.97265 2.52513 1.99
      vertex 8.15517 2.70764 3.01
      vertex 8.15517 2.70764 1.99
    endloop
  endfacet
  facet normal -0.707107 0.707107 0
    outer loop
      vertex 8.15517 2.70764 3.01
      vertex 7.97265 2.52513 1.99
      vertex 7.97265 2.52513 3.01
    endloop
  endfacet
  facet normal 0.891007 0.45399 0
    outer loop
      vertex 1.84483 2.70764 3.01
      vertex 1.29088 3.79483 1.99
      vertex 1.29088 3.79483 3.01
    endloop
  endfacet
  facet normal 0.891007 0.45399 0
    outer loop
      vertex 1.29088 3.79483 1.99
      vertex 1.84483 2.70764 3.01
      vertex 1.84483 2.70764 1.99
    endloop
  endfacet
  facet normal -0.984619 -0.155949 -0.0787694
    outer loop
      vertex 8.7087 6.20276 3.01
      vertex 8.8992 5 3.01
      vertex 8.5 5 8
    endloop
  endfacet
  facet normal 0.984619 -0.155949 -0.0787695
    outer loop
      vertex 1.2913 6.20276 3.01
      vertex 1.5 5 8
      vertex 1.1008 5 3.01
    endloop
  endfacet
  facet normal -0.704911 -0.704909 -0.0787696
    outer loop
      vertex 8.15452 7.29189 3.01
      vertex 7.41393 7.47487 8
      vertex 7.97154 7.47487 3.01
    endloop
  endfacet
  facet normal -0.70491 -0.70491 -0.0787695
    outer loop
      vertex 7.41393 7.47487 8
      vertex 8.15452 7.29189 3.01
      vertex 7.83156 7.05725 8
    endloop
  endfacet
  facet normal -0.888324 -0.452411 -0.0787719
    outer loop
      vertex 8.3287 6.08156 8
      vertex 8.70737 6.20687 3.01
      vertex 8.70836 6.20492 3.01
    endloop
  endfacet
  facet normal -0.888238 -0.45258 -0.0787696
    outer loop
      vertex 8.70737 6.20687 3.01
      vertex 8.3287 6.08156 8
      vertex 7.83156 7.05725 8
    endloop
  endfacet
  facet normal 0.984619 0.155949 -0.0787705
    outer loop
      vertex 1.50079 4.995 8
      vertex 1.6713 3.91844 8
      vertex 1.5 4.995 7.9901
    endloop
  endfacet
  facet normal 0.98462 0.155944 -0.0787684
    outer loop
      vertex 1.5 4.995 7.9901
      vertex 1.2913 3.79724 3.01
      vertex 1.5 5 8
    endloop
  endfacet
  facet normal 0.984619 0.155949 -0.0787696
    outer loop
      vertex 1.6713 3.91844 8
      vertex 1.2913 3.79724 3.01
      vertex 1.5 4.995 7.9901
    endloop
  endfacet
  facet normal 0.984617 0.155963 -0.0787697
    outer loop
      vertex 1.2913 3.79724 3.01
      vertex 1.6713 3.91844 8
      vertex 1.29164 3.79508 3.01
    endloop
  endfacet
  facet normal -0.984634 -0.155857 -0.0787684
    outer loop
      vertex 8.7087 6.20276 3.01
      vertex 8.3287 6.08156 8
      vertex 8.70836 6.20492 3.01
    endloop
  endfacet
  facet normal -0.984619 -0.155949 -0.0787695
    outer loop
      vertex 8.7087 6.20276 3.01
      vertex 8.5 5.005 7.9901
      vertex 8.3287 6.08156 8
    endloop
  endfacet
  facet normal -0.98462 -0.155944 -0.0787682
    outer loop
      vertex 8.5 5.005 7.9901
      vertex 8.7087 6.20276 3.01
      vertex 8.5 5 8
    endloop
  endfacet
  facet normal -0.984621 -0.155949 -0.0787469
    outer loop
      vertex 8.3287 6.08156 8
      vertex 8.5 5.005 7.9901
      vertex 8.49921 5.005 8
    endloop
  endfacet
  facet normal -0.704911 0.704909 -0.0787696
    outer loop
      vertex 7.41393 2.52513 8
      vertex 8.15452 2.70811 3.01
      vertex 7.97154 2.52513 3.01
    endloop
  endfacet
  facet normal -0.70491 0.70491 -0.0787695
    outer loop
      vertex 8.15452 2.70811 3.01
      vertex 7.41393 2.52513 8
      vertex 7.83156 2.94275 8
    endloop
  endfacet
  facet normal 0.704909 -0.70491 -0.0787695
    outer loop
      vertex 2.58607 7.47487 8
      vertex 1.84548 7.29189 3.01
      vertex 2.02846 7.47487 3.01
    endloop
  endfacet
  facet normal 0.70491 -0.70491 -0.0787695
    outer loop
      vertex 1.84548 7.29189 3.01
      vertex 2.58607 7.47487 8
      vertex 2.16844 7.05725 8
    endloop
  endfacet
  facet normal 0.888238 0.45258 -0.0787695
    outer loop
      vertex 2.16844 2.94275 8
      vertex 1.84548 2.70811 3.01
      vertex 1.29264 3.79313 3.01
    endloop
  endfacet
  facet normal 0.984619 0.155949 -0.0787695
    outer loop
      vertex 1.5 5 8
      vertex 1.2913 3.79724 3.01
      vertex 1.1008 5 3.01
    endloop
  endfacet
  facet normal 0.70491 0.70491 -0.0787695
    outer loop
      vertex 2.58607 2.52513 8
      vertex 1.84548 2.70811 3.01
      vertex 2.16844 2.94275 8
    endloop
  endfacet
  facet normal 0.704909 0.70491 -0.0787695
    outer loop
      vertex 1.84548 2.70811 3.01
      vertex 2.58607 2.52513 8
      vertex 2.02846 2.52513 3.01
    endloop
  endfacet
  facet normal -0.888238 -0.45258 -0.0787694
    outer loop
      vertex 8.15452 7.29189 3.01
      vertex 8.70737 6.20687 3.01
      vertex 7.83156 7.05725 8
    endloop
  endfacet
  facet normal -0.984619 0.155949 -0.0787694
    outer loop
      vertex 8.8992 5 3.01
      vertex 8.7087 3.79724 3.01
      vertex 8.5 5 8
    endloop
  endfacet
  facet normal 0.888238 -0.45258 -0.0787695
    outer loop
      vertex 1.84548 7.29189 3.01
      vertex 2.16844 7.05725 8
      vertex 1.29264 6.20687 3.01
    endloop
  endfacet
  facet normal 0.888236 0.452584 -0.0787695
    outer loop
      vertex 1.6713 3.91844 8
      vertex 1.29264 3.79313 3.01
      vertex 1.29164 3.79508 3.01
    endloop
  endfacet
  facet normal 0.888238 0.45258 -0.0787695
    outer loop
      vertex 1.29264 3.79313 3.01
      vertex 1.6713 3.91844 8
      vertex 2.16844 2.94275 8
    endloop
  endfacet
  facet normal -0.888238 0.45258 -0.0787694
    outer loop
      vertex 8.70737 3.79313 3.01
      vertex 8.15452 2.70811 3.01
      vertex 7.83156 2.94275 8
    endloop
  endfacet
  facet normal 0.888238 -0.45258 -0.0787696
    outer loop
      vertex 1.6713 6.08156 8
      vertex 1.29264 6.20687 3.01
      vertex 2.16844 7.05725 8
    endloop
  endfacet
  facet normal 0.888236 -0.452584 -0.0787695
    outer loop
      vertex 1.29264 6.20687 3.01
      vertex 1.6713 6.08156 8
      vertex 1.29164 6.20492 3.01
    endloop
  endfacet
  facet normal 0.984617 -0.155963 -0.0787697
    outer loop
      vertex 1.6713 6.08156 8
      vertex 1.2913 6.20276 3.01
      vertex 1.29164 6.20492 3.01
    endloop
  endfacet
  facet normal 0.984619 -0.155949 -0.0787705
    outer loop
      vertex 1.5 5.005 7.9901
      vertex 1.6713 6.08156 8
      vertex 1.50079 5.005 8
    endloop
  endfacet
  facet normal 0.984619 -0.155949 -0.0787696
    outer loop
      vertex 1.6713 6.08156 8
      vertex 1.5 5.005 7.9901
      vertex 1.2913 6.20276 3.01
    endloop
  endfacet
  facet normal 0.98462 -0.155944 -0.0787684
    outer loop
      vertex 1.2913 6.20276 3.01
      vertex 1.5 5.005 7.9901
      vertex 1.5 5 8
    endloop
  endfacet
  facet normal -0.888324 0.452411 -0.0787718
    outer loop
      vertex 8.70737 3.79313 3.01
      vertex 8.3287 3.91844 8
      vertex 8.70836 3.79508 3.01
    endloop
  endfacet
  facet normal -0.888238 0.45258 -0.0787696
    outer loop
      vertex 8.3287 3.91844 8
      vertex 8.70737 3.79313 3.01
      vertex 7.83156 2.94275 8
    endloop
  endfacet
  facet normal -0.984621 0.155949 -0.0787469
    outer loop
      vertex 8.5 4.995 7.9901
      vertex 8.3287 3.91844 8
      vertex 8.49921 4.995 8
    endloop
  endfacet
  facet normal -0.98462 0.155944 -0.0787682
    outer loop
      vertex 8.7087 3.79724 3.01
      vertex 8.5 4.995 7.9901
      vertex 8.5 5 8
    endloop
  endfacet
  facet normal -0.984619 0.155949 -0.0787695
    outer loop
      vertex 8.7087 3.79724 3.01
      vertex 8.3287 3.91844 8
      vertex 8.5 4.995 7.9901
    endloop
  endfacet
  facet normal -0.984634 0.155857 -0.0787683
    outer loop
      vertex 8.3287 3.91844 8
      vertex 8.7087 3.79724 3.01
      vertex 8.70836 3.79508 3.01
    endloop
  endfacet
  facet normal 1 0 0
    outer loop
      vertex 1.5 5.005 13
      vertex 1.5 5 8
      vertex 1.5 5.005 7.9901
    endloop
  endfacet
  facet normal 1 -0 0
    outer loop
      vertex 1.5 4.995 13
      vertex 1.5 5 8
      vertex 1.5 5.005 13
    endloop
  endfacet
  facet normal 1 0 0
    outer loop
      vertex 1.5 5 8
      vertex 1.5 4.995 13
      vertex 1.5 4.995 7.9901
    endloop
  endfacet
  facet normal 0 0 -1
    outer loop
      vertex 1.5 4.995 13
      vertex 4.995 5.005 13
      vertex 4.995 4.995 13
    endloop
  endfacet
  facet normal -0 0 -1
    outer loop
      vertex 4.995 5.005 13
      vertex 1.5 4.995 13
      vertex 1.5 5.005 13
    endloop
  endfacet
  facet normal 0 0 -1
    outer loop
      vertex 4.995 4.995 13
      vertex 5.005 4.995 13
      vertex 5.005 2.52513 13
    endloop
  endfacet
  facet normal 0 0 -1
    outer loop
      vertex 5.005 4.995 13
      vertex 4.995 4.995 13
      vertex 5.005 5.005 13
    endloop
  endfacet
  facet normal 0 0 -1
    outer loop
      vertex 4.995 4.995 13
      vertex 5.005 2.52513 13
      vertex 4.995 2.52513 13
    endloop
  endfacet
  facet normal 0 0 -1
    outer loop
      vertex 4.995 5.005 13
      vertex 5.005 5.005 13
      vertex 4.995 4.995 13
    endloop
  endfacet
  facet normal 0 0 -1
    outer loop
      vertex 5.005 5.005 13
      vertex 4.995 5.005 13
      vertex 5.005 7.47487 13
    endloop
  endfacet
  facet normal -0 0 -1
    outer loop
      vertex 5.005 7.47487 13
      vertex 4.995 5.005 13
      vertex 4.995 7.47487 13
    endloop
  endfacet
  facet normal 0 0 -1
    outer loop
      vertex 5.005 4.995 13
      vertex 8.5 5.005 13
      vertex 8.5 4.995 13
    endloop
  endfacet
  facet normal -0 0 -1
    outer loop
      vertex 8.5 5.005 13
      vertex 5.005 4.995 13
      vertex 5.005 5.005 13
    endloop
  endfacet
  facet normal -1 0 0
    outer loop
      vertex 8.5 5 8
      vertex 8.5 5.005 13
      vertex 8.5 5.005 7.9901
    endloop
  endfacet
  facet normal -1 0 0
    outer loop
      vertex 8.5 4.995 13
      vertex 8.5 5 8
      vertex 8.5 4.995 7.9901
    endloop
  endfacet
  facet normal -1 0 0
    outer loop
      vertex 8.5 5 8
      vertex 8.5 4.995 13
      vertex 8.5 5.005 13
    endloop
  endfacet
  facet normal 0 -1 0
    outer loop
      vertex 5.00688 5.005 12.9815
      vertex 5.005 5.005 13
      vertex 5.005 5.005 12.9828
    endloop
  endfacet
  facet normal 0 -1 0
    outer loop
      vertex 5.01539 5.005 12.9738
      vertex 5.005 5.005 13
      vertex 5.00688 5.005 12.9815
    endloop
  endfacet
  facet normal 0 -1 0
    outer loop
      vertex 5.005 5.005 13
      vertex 5.01539 5.005 12.9738
      vertex 8.5 5.005 13
    endloop
  endfacet
  facet normal 0 -1 0
    outer loop
      vertex 8.48921 5.005 9.5
      vertex 8.5 5.005 13
      vertex 5.01539 5.005 12.9738
    endloop
  endfacet
  facet normal 0 -1 0
    outer loop
      vertex 8.49921 5.005 9.5
      vertex 8.5 5.005 13
      vertex 8.48921 5.005 9.5
    endloop
  endfacet
  facet normal 0 -1 0
    outer loop
      vertex 8.5 5.005 7.9901
      vertex 8.49921 5.005 9.5
      vertex 8.49921 5.005 8
    endloop
  endfacet
  facet normal 0 -1 0
    outer loop
      vertex 8.49921 5.005 9.5
      vertex 8.5 5.005 7.9901
      vertex 8.5 5.005 13
    endloop
  endfacet
  facet normal 0 -1 0
    outer loop
      vertex 4.98461 5.005 12.9738
      vertex 4.995 5.005 13
      vertex 1.5 5.005 13
    endloop
  endfacet
  facet normal 0 -1 -0
    outer loop
      vertex 4.995 5.005 13
      vertex 4.99312 5.005 12.9815
      vertex 4.995 5.005 12.9828
    endloop
  endfacet
  facet normal 0 -1 0
    outer loop
      vertex 4.995 5.005 13
      vertex 4.98461 5.005 12.9738
      vertex 4.99312 5.005 12.9815
    endloop
  endfacet
  facet normal 0 -1 0
    outer loop
      vertex 1.51079 5.005 9.5
      vertex 1.5 5.005 13
      vertex 1.50079 5.005 9.5
    endloop
  endfacet
  facet normal 0 -1 0
    outer loop
      vertex 1.5 5.005 7.9901
      vertex 1.50079 5.005 9.5
      vertex 1.5 5.005 13
    endloop
  endfacet
  facet normal 0 -1 -0
    outer loop
      vertex 1.50079 5.005 9.5
      vertex 1.5 5.005 7.9901
      vertex 1.50079 5.005 8
    endloop
  endfacet
  facet normal 0 -1 0
    outer loop
      vertex 1.5 5.005 13
      vertex 1.51079 5.005 9.5
      vertex 4.98461 5.005 12.9738
    endloop
  endfacet
  facet normal 0 1 0
    outer loop
      vertex 4.99312 4.995 12.9815
      vertex 4.995 4.995 13
      vertex 4.995 4.995 12.9828
    endloop
  endfacet
  facet normal 0 1 0
    outer loop
      vertex 4.98461 4.995 12.9738
      vertex 4.995 4.995 13
      vertex 4.99312 4.995 12.9815
    endloop
  endfacet
  facet normal 0 1 0
    outer loop
      vertex 4.995 4.995 13
      vertex 4.98461 4.995 12.9738
      vertex 1.5 4.995 13
    endloop
  endfacet
  facet normal 0 1 -0
    outer loop
      vertex 1.51079 4.995 9.5
      vertex 1.5 4.995 13
      vertex 4.98461 4.995 12.9738
    endloop
  endfacet
  facet normal 0 1 -0
    outer loop
      vertex 1.50079 4.995 9.5
      vertex 1.5 4.995 13
      vertex 1.51079 4.995 9.5
    endloop
  endfacet
  facet normal 0 1 0
    outer loop
      vertex 1.5 4.995 7.9901
      vertex 1.50079 4.995 9.5
      vertex 1.50079 4.995 8
    endloop
  endfacet
  facet normal 0 1 0
    outer loop
      vertex 1.50079 4.995 9.5
      vertex 1.5 4.995 7.9901
      vertex 1.5 4.995 13
    endloop
  endfacet
  facet normal 0 1 -0
    outer loop
      vertex 5.01539 4.995 12.9738
      vertex 5.005 4.995 13
      vertex 8.5 4.995 13
    endloop
  endfacet
  facet normal 0 1 0
    outer loop
      vertex 5.005 4.995 13
      vertex 5.00688 4.995 12.9815
      vertex 5.005 4.995 12.9828
    endloop
  endfacet
  facet normal 0 1 0
    outer loop
      vertex 5.005 4.995 13
      vertex 5.01539 4.995 12.9738
      vertex 5.00688 4.995 12.9815
    endloop
  endfacet
  facet normal 0 1 0
    outer loop
      vertex 8.48921 4.995 9.5
      vertex 8.5 4.995 13
      vertex 8.49921 4.995 9.5
    endloop
  endfacet
  facet normal 0 1 -0
    outer loop
      vertex 8.5 4.995 7.9901
      vertex 8.49921 4.995 9.5
      vertex 8.5 4.995 13
    endloop
  endfacet
  facet normal 0 1 0
    outer loop
      vertex 8.49921 4.995 9.5
      vertex 8.5 4.995 7.9901
      vertex 8.49921 4.995 8
    endloop
  endfacet
  facet normal 0 1 0
    outer loop
      vertex 8.5 4.995 13
      vertex 8.48921 4.995 9.5
      vertex 5.01539 4.995 12.9738
    endloop
  endfacet
  facet normal 1 0 0
    outer loop
      vertex 4.995 4.995 13
      vertex 4.995 4.99312 12.9815
      vertex 4.995 4.995 12.9828
    endloop
  endfacet
  facet normal 1 0 0
    outer loop
      vertex 4.995 4.995 13
      vertex 4.995 4.98461 12.9738
      vertex 4.995 4.99312 12.9815
    endloop
  endfacet
  facet normal 1 -0 0
    outer loop
      vertex 4.995 2.52513 13
      vertex 4.995 4.98461 12.9738
      vertex 4.995 4.995 13
    endloop
  endfacet
  facet normal 1 0 0
    outer loop
      vertex 4.995 4.98461 12.9738
      vertex 4.995 2.52513 13
      vertex 4.995 2.52513 10.5143
    endloop
  endfacet
  facet normal 1 0 0
    outer loop
      vertex 4.995 7.47487 13
      vertex 4.995 5.01539 12.9738
      vertex 4.995 7.47487 10.5143
    endloop
  endfacet
  facet normal 1 -0 0
    outer loop
      vertex 4.995 5.005 13
      vertex 4.995 5.01539 12.9738
      vertex 4.995 7.47487 13
    endloop
  endfacet
  facet normal 1 0 0
    outer loop
      vertex 4.995 5.01539 12.9738
      vertex 4.995 5.005 13
      vertex 4.995 5.00688 12.9815
    endloop
  endfacet
  facet normal 1 0 0
    outer loop
      vertex 4.995 5.00688 12.9815
      vertex 4.995 5.005 13
      vertex 4.995 5.005 12.9828
    endloop
  endfacet
  facet normal -1 0 0
    outer loop
      vertex 5.005 4.99312 12.9815
      vertex 5.005 4.995 13
      vertex 5.005 4.995 12.9828
    endloop
  endfacet
  facet normal -1 0 0
    outer loop
      vertex 5.005 4.98461 12.9738
      vertex 5.005 4.995 13
      vertex 5.005 4.99312 12.9815
    endloop
  endfacet
  facet normal -1 0 0
    outer loop
      vertex 5.005 2.52513 13
      vertex 5.005 4.98461 12.9738
      vertex 5.005 2.52513 10.5143
    endloop
  endfacet
  facet normal -1 0 0
    outer loop
      vertex 5.005 4.98461 12.9738
      vertex 5.005 2.52513 13
      vertex 5.005 4.995 13
    endloop
  endfacet
  facet normal -1 0 0
    outer loop
      vertex 5.005 5.01539 12.9738
      vertex 5.005 7.47487 13
      vertex 5.005 7.47487 10.5143
    endloop
  endfacet
  facet normal -1 0 0
    outer loop
      vertex 5.005 5.005 13
      vertex 5.005 5.01539 12.9738
      vertex 5.005 5.00688 12.9815
    endloop
  endfacet
  facet normal -1 0 0
    outer loop
      vertex 5.005 5.005 13
      vertex 5.005 5.00688 12.9815
      vertex 5.005 5.005 12.9828
    endloop
  endfacet
  facet normal -1 0 0
    outer loop
      vertex 5.005 5.01539 12.9738
      vertex 5.005 5.005 13
      vertex 5.005 7.47487 13
    endloop
  endfacet
  facet normal -0.987688 -0.156435 0
    outer loop
      vertex 8.49921 5.005 8
      vertex 8.3287 6.08156 9.5
      vertex 8.3287 6.08156 8
    endloop
  endfacet
  facet normal -0.987688 -0.156435 0
    outer loop
      vertex 8.3287 6.08156 9.5
      vertex 8.49921 5.005 8
      vertex 8.49921 5.005 9.5
    endloop
  endfacet
  facet normal -0.987688 -0.156435 0
    outer loop
      vertex 8.5 5 0
      vertex 8.3287 6.08156 1.6
      vertex 8.3287 6.08156 0
    endloop
  endfacet
  facet normal -0.987688 -0.156435 0
    outer loop
      vertex 8.3287 6.08156 1.6
      vertex 8.5 5 0
      vertex 8.5 5 1.6
    endloop
  endfacet
  facet normal 0.987688 -0.156435 0
    outer loop
      vertex 1.50079 5.005 9.5
      vertex 1.6713 6.08156 8
      vertex 1.6713 6.08156 9.5
    endloop
  endfacet
  facet normal 0.987688 -0.156435 0
    outer loop
      vertex 1.6713 6.08156 8
      vertex 1.50079 5.005 9.5
      vertex 1.50079 5.005 8
    endloop
  endfacet
  facet normal 0.987688 -0.156435 0
    outer loop
      vertex 1.5 5 1.6
      vertex 1.6713 6.08156 0
      vertex 1.6713 6.08156 1.6
    endloop
  endfacet
  facet normal 0.987688 -0.156435 0
    outer loop
      vertex 1.6713 6.08156 0
      vertex 1.5 5 1.6
      vertex 1.5 5 0
    endloop
  endfacet
  facet normal -0.707107 -0.707107 0
    outer loop
      vertex 7.83156 7.05725 8
      vertex 7.41393 7.47487 9.5
      vertex 7.41393 7.47487 8
    endloop
  endfacet
  facet normal -0.707107 -0.707107 0
    outer loop
      vertex 7.41393 7.47487 9.5
      vertex 7.83156 7.05725 8
      vertex 7.83156 7.05725 9.5
    endloop
  endfacet
  facet normal -0.707107 -0.707107 0
    outer loop
      vertex 7.83156 7.05725 0
      vertex 7.41393 7.47487 1.6
      vertex 7.41393 7.47487 0
    endloop
  endfacet
  facet normal -0.707107 -0.707107 0
    outer loop
      vertex 7.41393 7.47487 1.6
      vertex 7.83156 7.05725 0
      vertex 7.83156 7.05725 1.6
    endloop
  endfacet
  facet normal -0.891007 -0.45399 0
    outer loop
      vertex 8.3287 6.08156 8
      vertex 7.83156 7.05725 9.5
      vertex 7.83156 7.05725 8
    endloop
  endfacet
  facet normal -0.891007 -0.45399 0
    outer loop
      vertex 7.83156 7.05725 9.5
      vertex 8.3287 6.08156 8
      vertex 8.3287 6.08156 9.5
    endloop
  endfacet
  facet normal -0.891007 -0.45399 0
    outer loop
      vertex 8.3287 6.08156 0
      vertex 7.83156 7.05725 1.6
      vertex 7.83156 7.05725 0
    endloop
  endfacet
  facet normal -0.891007 -0.45399 0
    outer loop
      vertex 7.83156 7.05725 1.6
      vertex 8.3287 6.08156 0
      vertex 8.3287 6.08156 1.6
    endloop
  endfacet
  facet normal 0.707107 -0.707107 0
    outer loop
      vertex 2.16844 7.05725 9.5
      vertex 2.58607 7.47487 8
      vertex 2.58607 7.47487 9.5
    endloop
  endfacet
  facet normal 0.707107 -0.707107 0
    outer loop
      vertex 2.58607 7.47487 8
      vertex 2.16844 7.05725 9.5
      vertex 2.16844 7.05725 8
    endloop
  endfacet
  facet normal 0.707107 -0.707107 0
    outer loop
      vertex 2.16844 7.05725 1.6
      vertex 2.58607 7.47487 0
      vertex 2.58607 7.47487 1.6
    endloop
  endfacet
  facet normal 0.707107 -0.707107 0
    outer loop
      vertex 2.58607 7.47487 0
      vertex 2.16844 7.05725 1.6
      vertex 2.16844 7.05725 0
    endloop
  endfacet
  facet normal -0.891007 0.45399 0
    outer loop
      vertex 7.83156 2.94275 8
      vertex 8.3287 3.91844 9.5
      vertex 8.3287 3.91844 8
    endloop
  endfacet
  facet normal -0.891007 0.45399 0
    outer loop
      vertex 8.3287 3.91844 9.5
      vertex 7.83156 2.94275 8
      vertex 7.83156 2.94275 9.5
    endloop
  endfacet
  facet normal -0.891007 0.45399 0
    outer loop
      vertex 7.83156 2.94275 0
      vertex 8.3287 3.91844 1.6
      vertex 8.3287 3.91844 0
    endloop
  endfacet
  facet normal -0.891007 0.45399 0
    outer loop
      vertex 8.3287 3.91844 1.6
      vertex 7.83156 2.94275 0
      vertex 7.83156 2.94275 1.6
    endloop
  endfacet
  facet normal 0.707107 0.707107 0
    outer loop
      vertex 2.58607 2.52513 9.5
      vertex 2.16844 2.94275 8
      vertex 2.16844 2.94275 9.5
    endloop
  endfacet
  facet normal 0.707107 0.707107 0
    outer loop
      vertex 2.16844 2.94275 8
      vertex 2.58607 2.52513 9.5
      vertex 2.58607 2.52513 8
    endloop
  endfacet
  facet normal 0.707107 0.707107 0
    outer loop
      vertex 2.58607 2.52513 1.6
      vertex 2.16844 2.94275 0
      vertex 2.16844 2.94275 1.6
    endloop
  endfacet
  facet normal 0.707107 0.707107 0
    outer loop
      vertex 2.16844 2.94275 0
      vertex 2.58607 2.52513 1.6
      vertex 2.58607 2.52513 0
    endloop
  endfacet
  facet normal 0.987688 0.156435 0
    outer loop
      vertex 1.6713 3.91844 9.5
      vertex 1.50079 4.995 8
      vertex 1.50079 4.995 9.5
    endloop
  endfacet
  facet normal 0.987688 0.156435 0
    outer loop
      vertex 1.50079 4.995 8
      vertex 1.6713 3.91844 9.5
      vertex 1.6713 3.91844 8
    endloop
  endfacet
  facet normal 0.987688 0.156435 0
    outer loop
      vertex 1.6713 3.91844 1.6
      vertex 1.5 5 0
      vertex 1.5 5 1.6
    endloop
  endfacet
  facet normal 0.987688 0.156435 0
    outer loop
      vertex 1.5 5 0
      vertex 1.6713 3.91844 1.6
      vertex 1.6713 3.91844 0
    endloop
  endfacet
  facet normal 0.891007 -0.45399 0
    outer loop
      vertex 1.6713 6.08156 9.5
      vertex 2.16844 7.05725 8
      vertex 2.16844 7.05725 9.5
    endloop
  endfacet
  facet normal 0.891007 -0.45399 0
    outer loop
      vertex 2.16844 7.05725 8
      vertex 1.6713 6.08156 9.5
      vertex 1.6713 6.08156 8
    endloop
  endfacet
  facet normal 0.891007 -0.45399 0
    outer loop
      vertex 1.6713 6.08156 1.6
      vertex 2.16844 7.05725 0
      vertex 2.16844 7.05725 1.6
    endloop
  endfacet
  facet normal 0.891007 -0.45399 0
    outer loop
      vertex 2.16844 7.05725 0
      vertex 1.6713 6.08156 1.6
      vertex 1.6713 6.08156 0
    endloop
  endfacet
  facet normal 0 0 -1
    outer loop
      vertex 8.48921 5.005 9.5
      vertex 8.3287 6.08156 9.5
      vertex 8.49921 5.005 9.5
    endloop
  endfacet
  facet normal 0 0 -1
    outer loop
      vertex 8.31919 6.07847 9.5
      vertex 8.3287 6.08156 9.5
      vertex 8.48921 5.005 9.5
    endloop
  endfacet
  facet normal 0 0 -1
    outer loop
      vertex 8.31919 6.07847 9.5
      vertex 7.83156 7.05725 9.5
      vertex 8.3287 6.08156 9.5
    endloop
  endfacet
  facet normal 0 0 -1
    outer loop
      vertex 7.82347 7.05137 9.5
      vertex 7.83156 7.05725 9.5
      vertex 8.31919 6.07847 9.5
    endloop
  endfacet
  facet normal 0 0 -1
    outer loop
      vertex 7.82347 7.05137 9.5
      vertex 7.41393 7.47487 9.5
      vertex 7.83156 7.05725 9.5
    endloop
  endfacet
  facet normal -0 -0 -1
    outer loop
      vertex 7.41393 7.47487 9.5
      vertex 7.82347 7.05137 9.5
      vertex 7.39997 7.47487 9.5
    endloop
  endfacet
  facet normal 0 0 -1
    outer loop
      vertex 8.3287 3.91844 9.5
      vertex 8.48921 4.995 9.5
      vertex 8.49921 4.995 9.5
    endloop
  endfacet
  facet normal 0 0 -1
    outer loop
      vertex 8.3287 3.91844 9.5
      vertex 8.31919 3.92153 9.5
      vertex 8.48921 4.995 9.5
    endloop
  endfacet
  facet normal 0 0 -1
    outer loop
      vertex 7.83156 2.94275 9.5
      vertex 8.31919 3.92153 9.5
      vertex 8.3287 3.91844 9.5
    endloop
  endfacet
  facet normal 0 0 -1
    outer loop
      vertex 7.83156 2.94275 9.5
      vertex 7.82347 2.94863 9.5
      vertex 8.31919 3.92153 9.5
    endloop
  endfacet
  facet normal 0 0 -1
    outer loop
      vertex 7.41393 2.52513 9.5
      vertex 7.82347 2.94863 9.5
      vertex 7.83156 2.94275 9.5
    endloop
  endfacet
  facet normal 0 0 -1
    outer loop
      vertex 7.82347 2.94863 9.5
      vertex 7.41393 2.52513 9.5
      vertex 7.39997 2.52513 9.5
    endloop
  endfacet
  facet normal 0 0 -1
    outer loop
      vertex 2.58607 2.52513 9.5
      vertex 2.17653 2.94863 9.5
      vertex 2.60003 2.52513 9.5
    endloop
  endfacet
  facet normal 0 0 -1
    outer loop
      vertex 2.16844 2.94275 9.5
      vertex 2.17653 2.94863 9.5
      vertex 2.58607 2.52513 9.5
    endloop
  endfacet
  facet normal 0 0 -1
    outer loop
      vertex 2.16844 2.94275 9.5
      vertex 1.68081 3.92153 9.5
      vertex 2.17653 2.94863 9.5
    endloop
  endfacet
  facet normal 0 0 -1
    outer loop
      vertex 1.6713 3.91844 9.5
      vertex 1.68081 3.92153 9.5
      vertex 2.16844 2.94275 9.5
    endloop
  endfacet
  facet normal 0 0 -1
    outer loop
      vertex 1.6713 3.91844 9.5
      vertex 1.51079 4.995 9.5
      vertex 1.68081 3.92153 9.5
    endloop
  endfacet
  facet normal -0 -0 -1
    outer loop
      vertex 1.51079 4.995 9.5
      vertex 1.6713 3.91844 9.5
      vertex 1.50079 4.995 9.5
    endloop
  endfacet
  facet normal 0 0 -1
    outer loop
      vertex 2.17653 7.05137 9.5
      vertex 2.58607 7.47487 9.5
      vertex 2.60003 7.47487 9.5
    endloop
  endfacet
  facet normal 0 0 -1
    outer loop
      vertex 2.17653 7.05137 9.5
      vertex 2.16844 7.05725 9.5
      vertex 2.58607 7.47487 9.5
    endloop
  endfacet
  facet normal 0 0 -1
    outer loop
      vertex 1.68081 6.07847 9.5
      vertex 2.16844 7.05725 9.5
      vertex 2.17653 7.05137 9.5
    endloop
  endfacet
  facet normal 0 0 -1
    outer loop
      vertex 1.68081 6.07847 9.5
      vertex 1.6713 6.08156 9.5
      vertex 2.16844 7.05725 9.5
    endloop
  endfacet
  facet normal 0 0 -1
    outer loop
      vertex 1.51079 5.005 9.5
      vertex 1.6713 6.08156 9.5
      vertex 1.68081 6.07847 9.5
    endloop
  endfacet
  facet normal 0 0 -1
    outer loop
      vertex 1.6713 6.08156 9.5
      vertex 1.51079 5.005 9.5
      vertex 1.50079 5.005 9.5
    endloop
  endfacet
  facet normal -0.987688 0.156435 0
    outer loop
      vertex 8.3287 3.91844 8
      vertex 8.49921 4.995 9.5
      vertex 8.49921 4.995 8
    endloop
  endfacet
  facet normal -0.987688 0.156435 0
    outer loop
      vertex 8.49921 4.995 9.5
      vertex 8.3287 3.91844 8
      vertex 8.3287 3.91844 9.5
    endloop
  endfacet
  facet normal -0.987688 0.156435 0
    outer loop
      vertex 8.3287 3.91844 0
      vertex 8.5 5 1.6
      vertex 8.5 5 0
    endloop
  endfacet
  facet normal -0.987688 0.156435 0
    outer loop
      vertex 8.5 5 1.6
      vertex 8.3287 3.91844 0
      vertex 8.3287 3.91844 1.6
    endloop
  endfacet
  facet normal -0.707107 0.707107 0
    outer loop
      vertex 7.41393 2.52513 8
      vertex 7.83156 2.94275 9.5
      vertex 7.83156 2.94275 8
    endloop
  endfacet
  facet normal -0.707107 0.707107 0
    outer loop
      vertex 7.83156 2.94275 9.5
      vertex 7.41393 2.52513 8
      vertex 7.41393 2.52513 9.5
    endloop
  endfacet
  facet normal -0.707107 0.707107 0
    outer loop
      vertex 7.41393 2.52513 0
      vertex 7.83156 2.94275 1.6
      vertex 7.83156 2.94275 0
    endloop
  endfacet
  facet normal -0.707107 0.707107 0
    outer loop
      vertex 7.83156 2.94275 1.6
      vertex 7.41393 2.52513 0
      vertex 7.41393 2.52513 1.6
    endloop
  endfacet
  facet normal 0.891007 0.45399 0
    outer loop
      vertex 2.16844 2.94275 9.5
      vertex 1.6713 3.91844 8
      vertex 1.6713 3.91844 9.5
    endloop
  endfacet
  facet normal 0.891007 0.45399 0
    outer loop
      vertex 1.6713 3.91844 8
      vertex 2.16844 2.94275 9.5
      vertex 2.16844 2.94275 8
    endloop
  endfacet
  facet normal 0.891007 0.45399 0
    outer loop
      vertex 2.16844 2.94275 1.6
      vertex 1.6713 3.91844 0
      vertex 1.6713 3.91844 1.6
    endloop
  endfacet
  facet normal 0.891007 0.45399 0
    outer loop
      vertex 1.6713 3.91844 0
      vertex 2.16844 2.94275 1.6
      vertex 2.16844 2.94275 0
    endloop
  endfacet
  facet normal -0.702713 -0.1113 -0.702713
    outer loop
      vertex 8.31919 6.07847 9.5
      vertex 8.48921 5.005 9.5
      vertex 5.01539 5.005 12.9738
    endloop
  endfacet
  facet normal 0.702714 0.111299 -0.702713
    outer loop
      vertex 4.98461 4.995 12.9738
      vertex 1.68081 3.92153 9.5
      vertex 1.51079 4.995 9.5
    endloop
  endfacet
  facet normal 0.1113 -0.702713 -0.702713
    outer loop
      vertex 4.995 7.47487 10.5143
      vertex 4.995 5.01539 12.9738
      vertex 4.19587 7.47487 10.3878
    endloop
  endfacet
  facet normal -0.1113 0.702713 -0.702713
    outer loop
      vertex 5.005 4.98461 12.9738
      vertex 5.80413 2.52513 10.3878
      vertex 5.005 2.52513 10.5143
    endloop
  endfacet
  facet normal 0.502997 -0.502997 -0.702842
    outer loop
      vertex 4.99312 5.005 12.9815
      vertex 4.995 5.00688 12.9815
      vertex 4.995 5.005 12.9828
    endloop
  endfacet
  facet normal 0.503087 -0.503087 -0.702713
    outer loop
      vertex 4.99312 5.005 12.9815
      vertex 3.2019 7.47487 9.93089
      vertex 4.995 5.00688 12.9815
    endloop
  endfacet
  facet normal 0.503087 -0.503088 -0.702713
    outer loop
      vertex 2.17653 7.05137 9.5
      vertex 3.2019 7.47487 9.93089
      vertex 4.99312 5.005 12.9815
    endloop
  endfacet
  facet normal 0.503087 -0.503087 -0.702714
    outer loop
      vertex 3.2019 7.47487 9.93089
      vertex 2.17653 7.05137 9.5
      vertex 2.60003 7.47487 9.5
    endloop
  endfacet
  facet normal -0.323007 -0.633924 -0.702714
    outer loop
      vertex 5.005 5.01539 12.9738
      vertex 6.7981 7.47487 9.93089
      vertex 5.005 5.00688 12.9815
    endloop
  endfacet
  facet normal -0.323002 -0.633927 -0.702713
    outer loop
      vertex 6.7981 7.47487 9.93089
      vertex 5.005 5.01539 12.9738
      vertex 5.80413 7.47487 10.3878
    endloop
  endfacet
  facet normal 0.502997 0.502997 -0.702842
    outer loop
      vertex 4.995 4.99312 12.9815
      vertex 4.99312 4.995 12.9815
      vertex 4.995 4.995 12.9828
    endloop
  endfacet
  facet normal 0.503087 0.503087 -0.702713
    outer loop
      vertex 3.2019 2.52513 9.93089
      vertex 4.99312 4.995 12.9815
      vertex 4.995 4.99312 12.9815
    endloop
  endfacet
  facet normal 0.503087 0.503087 -0.702714
    outer loop
      vertex 2.17653 2.94863 9.5
      vertex 3.2019 2.52513 9.93089
      vertex 2.60003 2.52513 9.5
    endloop
  endfacet
  facet normal 0.503087 0.503088 -0.702713
    outer loop
      vertex 3.2019 2.52513 9.93089
      vertex 2.17653 2.94863 9.5
      vertex 4.99312 4.995 12.9815
    endloop
  endfacet
  facet normal -0.503087 0.503087 -0.702714
    outer loop
      vertex 6.7981 2.52513 9.93089
      vertex 7.82347 2.94863 9.5
      vertex 7.39997 2.52513 9.5
    endloop
  endfacet
  facet normal -0.503087 0.503087 -0.702713
    outer loop
      vertex 6.7981 2.52513 9.93089
      vertex 5.00688 4.995 12.9815
      vertex 7.82347 2.94863 9.5
    endloop
  endfacet
  facet normal -0.503087 0.503087 -0.702713
    outer loop
      vertex 5.005 4.99312 12.9815
      vertex 5.00688 4.995 12.9815
      vertex 6.7981 2.52513 9.93089
    endloop
  endfacet
  facet normal -0.502997 0.502997 -0.702842
    outer loop
      vertex 5.00688 4.995 12.9815
      vertex 5.005 4.99312 12.9815
      vertex 5.005 4.995 12.9828
    endloop
  endfacet
  facet normal 0.323007 -0.633924 -0.702714
    outer loop
      vertex 3.2019 7.47487 9.93089
      vertex 4.995 5.01539 12.9738
      vertex 4.995 5.00688 12.9815
    endloop
  endfacet
  facet normal 0.323002 -0.633927 -0.702713
    outer loop
      vertex 4.995 5.01539 12.9738
      vertex 3.2019 7.47487 9.93089
      vertex 4.19587 7.47487 10.3878
    endloop
  endfacet
  facet normal 0.633924 -0.323007 -0.702714
    outer loop
      vertex 4.98461 5.005 12.9738
      vertex 2.17653 7.05137 9.5
      vertex 4.99312 5.005 12.9815
    endloop
  endfacet
  facet normal 0.633927 -0.323002 -0.702713
    outer loop
      vertex 2.17653 7.05137 9.5
      vertex 4.98461 5.005 12.9738
      vertex 1.68081 6.07847 9.5
    endloop
  endfacet
  facet normal -0.1113 -0.702713 -0.702713
    outer loop
      vertex 5.005 7.47487 10.5143
      vertex 5.80413 7.47487 10.3878
      vertex 5.005 5.01539 12.9738
    endloop
  endfacet
  facet normal -0.503087 -0.503087 -0.702714
    outer loop
      vertex 7.82347 7.05137 9.5
      vertex 6.7981 7.47487 9.93089
      vertex 7.39997 7.47487 9.5
    endloop
  endfacet
  facet normal -0.503087 -0.503087 -0.702713
    outer loop
      vertex 5.00688 5.005 12.9815
      vertex 6.7981 7.47487 9.93089
      vertex 7.82347 7.05137 9.5
    endloop
  endfacet
  facet normal -0.502997 -0.502997 -0.702842
    outer loop
      vertex 5.005 5.00688 12.9815
      vertex 5.00688 5.005 12.9815
      vertex 5.005 5.005 12.9828
    endloop
  endfacet
  facet normal -0.503087 -0.503087 -0.702713
    outer loop
      vertex 5.00688 5.005 12.9815
      vertex 5.005 5.00688 12.9815
      vertex 6.7981 7.47487 9.93089
    endloop
  endfacet
  facet normal -0.633927 -0.323002 -0.702713
    outer loop
      vertex 5.01539 5.005 12.9738
      vertex 7.82347 7.05137 9.5
      vertex 8.31919 6.07847 9.5
    endloop
  endfacet
  facet normal -0.633924 -0.323007 -0.702714
    outer loop
      vertex 7.82347 7.05137 9.5
      vertex 5.01539 5.005 12.9738
      vertex 5.00688 5.005 12.9815
    endloop
  endfacet
  facet normal 0.633924 0.323007 -0.702714
    outer loop
      vertex 2.17653 2.94863 9.5
      vertex 4.98461 4.995 12.9738
      vertex 4.99312 4.995 12.9815
    endloop
  endfacet
  facet normal 0.633927 0.323002 -0.702713
    outer loop
      vertex 4.98461 4.995 12.9738
      vertex 2.17653 2.94863 9.5
      vertex 1.68081 3.92153 9.5
    endloop
  endfacet
  facet normal 0.323002 0.633927 -0.702713
    outer loop
      vertex 3.2019 2.52513 9.93089
      vertex 4.995 4.98461 12.9738
      vertex 4.19587 2.52513 10.3878
    endloop
  endfacet
  facet normal 0.323007 0.633924 -0.702714
    outer loop
      vertex 4.995 4.98461 12.9738
      vertex 3.2019 2.52513 9.93089
      vertex 4.995 4.99312 12.9815
    endloop
  endfacet
  facet normal -0.323002 0.633927 -0.702713
    outer loop
      vertex 5.005 4.98461 12.9738
      vertex 6.7981 2.52513 9.93089
      vertex 5.80413 2.52513 10.3878
    endloop
  endfacet
  facet normal -0.323007 0.633924 -0.702714
    outer loop
      vertex 6.7981 2.52513 9.93089
      vertex 5.005 4.98461 12.9738
      vertex 5.005 4.99312 12.9815
    endloop
  endfacet
  facet normal -0.633927 0.323002 -0.702713
    outer loop
      vertex 7.82347 2.94863 9.5
      vertex 5.01539 4.995 12.9738
      vertex 8.31919 3.92153 9.5
    endloop
  endfacet
  facet normal -0.633924 0.323007 -0.702714
    outer loop
      vertex 5.01539 4.995 12.9738
      vertex 7.82347 2.94863 9.5
      vertex 5.00688 4.995 12.9815
    endloop
  endfacet
  facet normal 0.702714 -0.111299 -0.702713
    outer loop
      vertex 1.68081 6.07847 9.5
      vertex 4.98461 5.005 12.9738
      vertex 1.51079 5.005 9.5
    endloop
  endfacet
  facet normal 0.1113 0.702713 -0.702713
    outer loop
      vertex 4.995 4.98461 12.9738
      vertex 4.995 2.52513 10.5143
      vertex 4.19587 2.52513 10.3878
    endloop
  endfacet
  facet normal -0.702713 0.1113 -0.702713
    outer loop
      vertex 8.48921 4.995 9.5
      vertex 8.31919 3.92153 9.5
      vertex 5.01539 4.995 12.9738
    endloop
  endfacet
  facet normal 0 -1 0
    outer loop
      vertex 7.41393 7.47487 1.6
      vertex 7.97154 7.47487 3.01
      vertex 2.58607 7.47487 1.6
    endloop
  endfacet
  facet normal 0 -1 0
    outer loop
      vertex 7.97154 7.47487 3.01
      vertex 7.41393 7.47487 1.6
      vertex 7.95869 7.47487 1.99
    endloop
  endfacet
  facet normal 0 -1 0
    outer loop
      vertex 2.58607 7.47487 0
      vertex 7.41393 7.47487 1.6
      vertex 2.58607 7.47487 1.6
    endloop
  endfacet
  facet normal 0 -1 -0
    outer loop
      vertex 7.41393 7.47487 1.6
      vertex 2.58607 7.47487 0
      vertex 7.41393 7.47487 0
    endloop
  endfacet
  facet normal 0 -1 0
    outer loop
      vertex 2.02735 7.47487 1.99
      vertex 2.02846 7.47487 3.01
      vertex 2.02735 7.47487 3.01
    endloop
  endfacet
  facet normal 0 -1 0
    outer loop
      vertex 2.58607 7.47487 1.6
      vertex 2.02846 7.47487 3.01
      vertex 2.04131 7.47487 1.99
    endloop
  endfacet
  facet normal 0 -1 -0
    outer loop
      vertex 2.02846 7.47487 3.01
      vertex 2.02735 7.47487 1.99
      vertex 2.04131 7.47487 1.99
    endloop
  endfacet
  facet normal 0 -1 0
    outer loop
      vertex 2.02846 7.47487 3.01
      vertex 2.58607 7.47487 1.6
      vertex 7.97154 7.47487 3.01
    endloop
  endfacet
  facet normal 0 -1 0
    outer loop
      vertex 7.97265 7.47487 1.99
      vertex 7.97154 7.47487 3.01
      vertex 7.95869 7.47487 1.99
    endloop
  endfacet
  facet normal 0 -1 0
    outer loop
      vertex 7.97154 7.47487 3.01
      vertex 7.97265 7.47487 1.99
      vertex 7.97265 7.47487 3.01
    endloop
  endfacet
  facet normal 0 -1 0
    outer loop
      vertex 2.58607 7.47487 8
      vertex 2.60003 7.47487 9.5
      vertex 2.58607 7.47487 9.5
    endloop
  endfacet
  facet normal 0 -1 -0
    outer loop
      vertex 2.60003 7.47487 9.5
      vertex 2.58607 7.47487 8
      vertex 7.39997 7.47487 9.5
    endloop
  endfacet
  facet normal 0 -1 0
    outer loop
      vertex 7.41393 7.47487 8
      vertex 7.39997 7.47487 9.5
      vertex 2.58607 7.47487 8
    endloop
  endfacet
  facet normal 0 -1 0
    outer loop
      vertex 7.39997 7.47487 9.5
      vertex 7.41393 7.47487 8
      vertex 7.41393 7.47487 9.5
    endloop
  endfacet
  facet normal 0 -1 0
    outer loop
      vertex 2.02846 7.47487 3.01
      vertex 7.41393 7.47487 8
      vertex 2.58607 7.47487 8
    endloop
  endfacet
  facet normal 0 -1 -0
    outer loop
      vertex 7.41393 7.47487 8
      vertex 2.02846 7.47487 3.01
      vertex 7.97154 7.47487 3.01
    endloop
  endfacet
  facet normal 0 -1 0
    outer loop
      vertex 4.995 7.47487 10.5143
      vertex 5.005 7.47487 13
      vertex 4.995 7.47487 13
    endloop
  endfacet
  facet normal 0 -1 0
    outer loop
      vertex 4.995 7.47487 10.5143
      vertex 5.005 7.47487 10.5143
      vertex 5.005 7.47487 13
    endloop
  endfacet
  facet normal 0 -1 0
    outer loop
      vertex 4.19587 7.47487 10.3878
      vertex 5.005 7.47487 10.5143
      vertex 4.995 7.47487 10.5143
    endloop
  endfacet
  facet normal 0 -1 0
    outer loop
      vertex 4.19587 7.47487 10.3878
      vertex 5.80413 7.47487 10.3878
      vertex 5.005 7.47487 10.5143
    endloop
  endfacet
  facet normal 0 -1 0
    outer loop
      vertex 3.2019 7.47487 9.93089
      vertex 5.80413 7.47487 10.3878
      vertex 4.19587 7.47487 10.3878
    endloop
  endfacet
  facet normal 0 -1 0
    outer loop
      vertex 3.2019 7.47487 9.93089
      vertex 6.7981 7.47487 9.93089
      vertex 5.80413 7.47487 10.3878
    endloop
  endfacet
  facet normal 0 -1 0
    outer loop
      vertex 2.60003 7.47487 9.5
      vertex 6.7981 7.47487 9.93089
      vertex 3.2019 7.47487 9.93089
    endloop
  endfacet
  facet normal 0 -1 -0
    outer loop
      vertex 6.7981 7.47487 9.93089
      vertex 2.60003 7.47487 9.5
      vertex 7.39997 7.47487 9.5
    endloop
  endfacet
  facet normal 0 1 -0
    outer loop
      vertex 2.58607 2.52513 1.6
      vertex 2.02846 2.52513 3.01
      vertex 7.41393 2.52513 1.6
    endloop
  endfacet
  facet normal 0 1 0
    outer loop
      vertex 2.02846 2.52513 3.01
      vertex 2.58607 2.52513 1.6
      vertex 2.04131 2.52513 1.99
    endloop
  endfacet
  facet normal 0 1 -0
    outer loop
      vertex 7.41393 2.52513 0
      vertex 2.58607 2.52513 1.6
      vertex 7.41393 2.52513 1.6
    endloop
  endfacet
  facet normal 0 1 0
    outer loop
      vertex 2.58607 2.52513 1.6
      vertex 7.41393 2.52513 0
      vertex 2.58607 2.52513 0
    endloop
  endfacet
  facet normal 0 1 -0
    outer loop
      vertex 7.97265 2.52513 1.99
      vertex 7.97154 2.52513 3.01
      vertex 7.97265 2.52513 3.01
    endloop
  endfacet
  facet normal 0 1 0
    outer loop
      vertex 7.41393 2.52513 1.6
      vertex 7.97154 2.52513 3.01
      vertex 7.95869 2.52513 1.99
    endloop
  endfacet
  facet normal 0 1 0
    outer loop
      vertex 7.97154 2.52513 3.01
      vertex 7.97265 2.52513 1.99
      vertex 7.95869 2.52513 1.99
    endloop
  endfacet
  facet normal 0 1 0
    outer loop
      vertex 7.97154 2.52513 3.01
      vertex 7.41393 2.52513 1.6
      vertex 2.02846 2.52513 3.01
    endloop
  endfacet
  facet normal 0 1 0
    outer loop
      vertex 2.02735 2.52513 1.99
      vertex 2.02846 2.52513 3.01
      vertex 2.04131 2.52513 1.99
    endloop
  endfacet
  facet normal 0 1 0
    outer loop
      vertex 2.02846 2.52513 3.01
      vertex 2.02735 2.52513 1.99
      vertex 2.02735 2.52513 3.01
    endloop
  endfacet
  facet normal 0 1 -0
    outer loop
      vertex 7.41393 2.52513 8
      vertex 7.39997 2.52513 9.5
      vertex 7.41393 2.52513 9.5
    endloop
  endfacet
  facet normal 0 1 0
    outer loop
      vertex 7.39997 2.52513 9.5
      vertex 7.41393 2.52513 8
      vertex 2.60003 2.52513 9.5
    endloop
  endfacet
  facet normal 0 1 0
    outer loop
      vertex 2.58607 2.52513 8
      vertex 2.60003 2.52513 9.5
      vertex 7.41393 2.52513 8
    endloop
  endfacet
  facet normal 0 1 0
    outer loop
      vertex 2.60003 2.52513 9.5
      vertex 2.58607 2.52513 8
      vertex 2.58607 2.52513 9.5
    endloop
  endfacet
  facet normal 0 1 0
    outer loop
      vertex 7.97154 2.52513 3.01
      vertex 2.58607 2.52513 8
      vertex 7.41393 2.52513 8
    endloop
  endfacet
  facet normal 0 1 0
    outer loop
      vertex 2.58607 2.52513 8
      vertex 7.97154 2.52513 3.01
      vertex 2.02846 2.52513 3.01
    endloop
  endfacet
  facet normal 0 1 -0
    outer loop
      vertex 5.005 2.52513 10.5143
      vertex 4.995 2.52513 13
      vertex 5.005 2.52513 13
    endloop
  endfacet
  facet normal 0 1 0
    outer loop
      vertex 5.005 2.52513 10.5143
      vertex 4.995 2.52513 10.5143
      vertex 4.995 2.52513 13
    endloop
  endfacet
  facet normal 0 1 0
    outer loop
      vertex 5.80413 2.52513 10.3878
      vertex 4.995 2.52513 10.5143
      vertex 5.005 2.52513 10.5143
    endloop
  endfacet
  facet normal 0 1 0
    outer loop
      vertex 5.80413 2.52513 10.3878
      vertex 4.19587 2.52513 10.3878
      vertex 4.995 2.52513 10.5143
    endloop
  endfacet
  facet normal 0 1 0
    outer loop
      vertex 6.7981 2.52513 9.93089
      vertex 4.19587 2.52513 10.3878
      vertex 5.80413 2.52513 10.3878
    endloop
  endfacet
  facet normal 0 1 0
    outer loop
      vertex 6.7981 2.52513 9.93089
      vertex 3.2019 2.52513 9.93089
      vertex 4.19587 2.52513 10.3878
    endloop
  endfacet
  facet normal 0 1 0
    outer loop
      vertex 7.39997 2.52513 9.5
      vertex 3.2019 2.52513 9.93089
      vertex 6.7981 2.52513 9.93089
    endloop
  endfacet
  facet normal 0 1 0
    outer loop
      vertex 3.2019 2.52513 9.93089
      vertex 7.39997 2.52513 9.5
      vertex 2.60003 2.52513 9.5
    endloop
  endfacet
  facet normal -1 0 0
    outer loop
      vertex 0 0 0
      vertex 0 10 25
      vertex 0 10 0
    endloop
  endfacet
  facet normal -1 -0 0
    outer loop
      vertex 0 10 25
      vertex 0 0 0
      vertex 0 0 25
    endloop
  endfacet
  facet normal -0 0 1
    outer loop
      vertex 0 10 25
      vertex 10 0 25
      vertex 10 10 25
    endloop
  endfacet
  facet normal 0 0 1
    outer loop
      vertex 10 0 25
      vertex 0 10 25
      vertex 0 0 25
    endloop
  endfacet
  facet normal 1 -0 0
    outer loop
      vertex 10 0 25
      vertex 10 10 0
      vertex 10 10 25
    endloop
  endfacet
  facet normal 1 0 0
    outer loop
      vertex 10 10 0
      vertex 10 0 25
      vertex 10 0 0
    endloop
  endfacet
  facet normal 0 0 -1
    outer loop
      vertex 10 0 0
      vertex 8.5 5 0
      vertex 10 10 0
    endloop
  endfacet
  facet normal 0 0 -1
    outer loop
      vertex 10 0 0
      vertex 8.3287 3.91844 0
      vertex 8.5 5 0
    endloop
  endfacet
  facet normal 0 0 -1
    outer loop
      vertex 10 0 0
      vertex 7.83156 2.94275 0
      vertex 8.3287 3.91844 0
    endloop
  endfacet
  facet normal 0 0 -1
    outer loop
      vertex 10 0 0
      vertex 7.41393 2.52513 0
      vertex 7.83156 2.94275 0
    endloop
  endfacet
  facet normal 0 0 -1
    outer loop
      vertex 10 0 0
      vertex 2.58607 2.52513 0
      vertex 7.41393 2.52513 0
    endloop
  endfacet
  facet normal -0 0 -1
    outer loop
      vertex 1.6713 3.91844 0
      vertex 0 0 0
      vertex 1.5 5 0
    endloop
  endfacet
  facet normal -0 0 -1
    outer loop
      vertex 2.16844 2.94275 0
      vertex 0 0 0
      vertex 1.6713 3.91844 0
    endloop
  endfacet
  facet normal -0 0 -1
    outer loop
      vertex 2.58607 2.52513 0
      vertex 0 0 0
      vertex 2.16844 2.94275 0
    endloop
  endfacet
  facet normal 0 0 -1
    outer loop
      vertex 0 0 0
      vertex 2.58607 2.52513 0
      vertex 10 0 0
    endloop
  endfacet
  facet normal 0 0 -1
    outer loop
      vertex 8.3287 6.08156 0
      vertex 10 10 0
      vertex 8.5 5 0
    endloop
  endfacet
  facet normal 0 0 -1
    outer loop
      vertex 7.83156 7.05725 0
      vertex 10 10 0
      vertex 8.3287 6.08156 0
    endloop
  endfacet
  facet normal 0 0 -1
    outer loop
      vertex 7.41393 7.47487 0
      vertex 10 10 0
      vertex 7.83156 7.05725 0
    endloop
  endfacet
  facet normal 0 0 -1
    outer loop
      vertex 2.58607 7.47487 0
      vertex 10 10 0
      vertex 7.41393 7.47487 0
    endloop
  endfacet
  facet normal 0 0 -1
    outer loop
      vertex 0 10 0
      vertex 1.5 5 0
      vertex 0 0 0
    endloop
  endfacet
  facet normal 0 0 -1
    outer loop
      vertex 2.58607 7.47487 0
      vertex 0 10 0
      vertex 10 10 0
    endloop
  endfacet
  facet normal 0 0 -1
    outer loop
      vertex 2.16844 7.05725 0
      vertex 0 10 0
      vertex 2.58607 7.47487 0
    endloop
  endfacet
  facet normal 0 0 -1
    outer loop
      vertex 1.6713 6.08156 0
      vertex 0 10 0
      vertex 2.16844 7.05725 0
    endloop
  endfacet
  facet normal 0 0 -1
    outer loop
      vertex 1.5 5 0
      vertex 0 10 0
      vertex 1.6713 6.08156 0
    endloop
  endfacet
  facet normal 0 -1 0
    outer loop
      vertex 0 0 0
      vertex 10 0 25
      vertex 0 0 25
    endloop
  endfacet
  facet normal 0 -1 -0
    outer loop
      vertex 10 0 25
      vertex 0 0 0
      vertex 10 0 0
    endloop
  endfacet
  facet normal 0 1 -0
    outer loop
      vertex 10 10 0
      vertex 0 10 25
      vertex 10 10 25
    endloop
  endfacet
  facet normal 0 1 0
    outer loop
      vertex 0 10 25
      vertex 10 10 0
      vertex 0 10 0
    endloop
  endfacet
endsolid OpenSCAD_Model
