<?xml version="1.0" encoding="UTF-8" standalone="no"?>
<!-- Created with Inkscape (http://www.inkscape.org/) -->
<svg
   xmlns:svg="http://www.w3.org/2000/svg"
   xmlns="http://www.w3.org/2000/svg"
   version="1.0"
   width="40"
   height="50"
   id="svg2480">
  <defs
     id="defs2482" />
  <g
     id="layer1">
    <path
       d="M 19.746828,37.132255 C 19.282788,37.088065 19.248788,36.678155 19.248788,36.678155 L 19.468508,23.352045 C 19.468508,23.131075 17.495698,21.484085 17.461678,20.960385 C 17.461668,20.491655 17.676518,20.198685 18.106208,20.081475 C 18.457768,20.081495 18.755368,20.263685 19.087408,20.517575 C 19.419428,20.771505 19.805418,21.121535 20.156988,21.678155 L 21.519288,19.627375 C 21.519288,19.627375 21.748078,19.462395 22.223158,19.539735 C 22.588928,19.610335 22.904758,19.757245 22.881598,20.081475 C 22.859498,20.390835 21.284918,22.910235 21.284918,23.274835 L 21.065188,36.678155 C 21.065188,36.678155 20.975688,37.121205 20.611088,37.132255 L 19.746828,37.132255 z M 16.070068,17.591245 C 16.026168,17.262005 16.172608,16.946735 16.406988,16.653745 C 16.641358,16.360795 17.129638,16.214315 17.871828,16.214295 L 23.335698,16.228935 C 23.335698,16.228935 23.680418,16.339295 23.789798,16.683045 L 23.848388,17.210385 C 23.848378,17.561965 23.677488,17.840285 23.335698,18.045345 C 21.968498,17.742635 19.697998,17.742635 16.524178,18.045345 C 16.524178,18.045345 16.103218,17.955845 16.070068,17.591245 z M 15.703858,14.163505 C 15.703858,13.616655 15.945998,13.313995 16.535228,13.146075 C 16.678858,13.090835 21.046938,12.867745 21.046938,12.867745 C 21.593808,12.867775 22.101618,12.906835 22.570378,12.984935 C 23.039118,13.063085 23.516348,13.089315 24.024178,13.284605 C 24.664998,13.837025 24.034108,14.764835 23.570068,14.632255 C 21.743888,14.329545 19.318588,14.546225 16.289798,14.866635 C 15.671078,14.955025 15.703858,14.163505 15.703858,14.163505 z"
       id="path2503"
       style="fill:#000000;stroke:none;stroke-width:1" />
  </g>
</svg>
