<?xml version="1.0" encoding="UTF-8" standalone="no"?>
<!-- Created with Inkscape (http://www.inkscape.org/) -->
<svg
   xmlns:svg="http://www.w3.org/2000/svg"
   xmlns="http://www.w3.org/2000/svg"
   version="1.0"
   width="40"
   height="50"
   id="svg2480">
  <defs
     id="defs2482" />
  <g
     id="layer1">
    <path
       d="M 15.493202,37.1513 C 14.432542,37.38332 14.350622,36.6972 14.350622,36.6972 L 14.116242,19.51459 L 14.116242,13.33295 C 14.116242,13.33295 14.100042,13.02685 14.584992,12.87884 C 15.601462,12.56948 15.727572,13.33295 15.727572,13.33295 L 15.961952,18.82611 L 15.961952,36.6972 C 15.961952,36.6972 15.999062,37.04044 15.493202,37.1513 z M 25.195352,37.1513 C 24.079452,37.39437 24.052772,36.6972 24.052772,36.6972 L 24.287142,13.33295 C 24.287142,13.33295 24.245122,12.97054 24.741242,12.87884 C 25.757712,12.54738 25.883822,13.33295 25.883822,13.33295 L 25.883822,33.9433 L 25.649452,36.6972 C 25.649452,36.6972 25.619822,37.05884 25.195352,37.1513 z M 18.466832,29.35834 C 17.837062,28.69543 17.126632,27.45118 17.104532,27.30755 C 16.979052,26.42921 17.558632,26.16498 17.558632,26.16498 C 17.558632,26.16498 17.792872,25.88877 18.466832,26.16498 C 18.727472,26.2718 19.236112,27.95184 19.766442,28.11756 C 19.766442,28.11756 20.487762,28.42646 20.986362,27.76166 C 21.373062,27.41916 21.898162,25.62883 21.898162,25.62883 C 22.069412,24.99906 22.946832,25.15485 23.051792,25.69623 C 23.203532,27.71154 22.446312,29.06538 20.766642,29.82709 C 19.741342,30.01594 18.910662,29.7684 18.466832,29.35834 z M 18.012732,21.34564 C 17.793982,21.90814 16.846712,21.63373 16.870152,20.89154 C 16.870152,19.36812 18.166292,17.67233 19.167602,17.46145 C 21.139902,17.15054 22.854482,17.84675 23.051792,19.74896 C 23.208032,20.66695 23.059152,21.2072 22.597692,21.34564 C 21.426542,21.62185 21.564492,20.8681 21.564492,20.8681 C 21.775582,19.10831 20.502812,18.21529 19.155312,19.06048 C 18.359812,19.78968 18.012732,21.34564 18.012732,21.34564 z"
       id="path2483"
       style="fill:#000000;stroke:none;stroke-width:1" />
  </g>
</svg>
