<?xml version="1.0" encoding="UTF-8" standalone="no"?>
<!-- Created with Inkscape (http://www.inkscape.org/) -->
<svg
   xmlns:svg="http://www.w3.org/2000/svg"
   xmlns="http://www.w3.org/2000/svg"
   version="1.0"
   width="40"
   height="50"
   id="svg2480">
  <defs
     id="defs2482" />
  <g
     id="layer1">
    <path
       d="M 20.363943,36.952139 C 19.236993,37.206259 19.185373,36.578479 19.185373,36.578479 L 18.921703,34.703479 C 18.921703,34.703479 18.587943,32.661779 18.576833,31.180659 C 18.576833,29.479179 18.886193,26.036579 19.018773,25.263179 C 19.225603,23.421959 21.313033,21.554539 21.397533,19.146839 C 21.331233,17.191239 21.357073,15.303749 20.583673,14.950189 C 20.302803,14.781669 19.531773,15.209839 19.250663,16.502919 C 19.029693,17.519389 19.007593,19.575109 19.250663,20.282219 C 19.428653,20.673809 19.680343,20.975589 19.719413,21.366199 C 19.713493,21.772239 19.522343,22.065409 19.250663,22.289049 C 19.129133,22.432679 18.781913,22.420889 18.781913,22.420889 C 18.352223,22.264659 18.064133,21.996099 17.917653,21.615229 L 17.697933,20.956049 C 17.410673,20.160549 17.475713,16.296859 17.917653,15.169909 C 17.917653,15.169909 18.172923,14.046189 19.909843,13.177729 C 20.130813,13.067239 20.656913,12.987299 20.656913,12.987299 C 21.047533,13.026379 21.640243,13.193709 21.916683,13.617179 C 22.314423,13.904449 22.743943,16.410539 22.810233,18.509759 C 22.862023,19.433879 22.360153,21.628499 21.744803,22.885729 C 21.470033,23.447119 20.635813,24.411709 20.408143,25.593399 C 19.901433,29.140359 20.061203,32.284179 20.803393,35.399409 C 20.803393,35.399409 20.938833,35.897819 20.949883,36.483389 C 20.949883,36.483389 20.935583,36.823239 20.363943,36.952139 z M 15.383473,21.014639 C 14.641283,20.780279 13.973313,20.214859 13.918633,19.623039 C 13.528003,17.380869 14.289723,16.063489 15.031913,15.624019 C 15.031913,15.624019 15.262383,15.483389 15.676443,15.506829 C 16.068163,15.532589 16.509353,15.662889 16.584643,16.063469 C 16.654953,16.500969 15.855153,17.015619 15.566093,17.710929 C 15.566093,17.710929 15.221363,18.527329 15.471363,18.949209 C 15.768243,19.496089 16.529603,19.579429 16.584643,19.842769 C 16.733083,20.608399 16.145193,20.956049 16.145193,20.956049 C 15.840503,21.104489 15.383473,21.014639 15.383473,21.014639 z M 24.245533,20.669779 C 23.854903,20.591669 23.706463,20.472519 23.550223,20.218599 C 23.550223,20.218599 23.344413,19.802729 23.641283,19.474599 C 24.053463,19.031169 24.269213,19.127919 24.448903,18.893539 C 24.805253,18.428739 24.729733,17.328859 24.433273,16.933579 C 24.058273,16.433579 23.689143,15.843739 23.689143,15.843739 C 23.423513,15.218739 24.143243,14.950189 24.143243,14.950189 C 25.158863,14.778309 25.551283,15.578649 25.915703,16.283199 C 26.384453,17.189449 26.163853,19.132199 25.871513,19.732279 C 25.574633,20.341659 24.977953,20.625829 24.977953,20.625829 C 24.696703,20.727389 24.245533,20.669779 24.245533,20.669779 z"
       id="path2612"
       style="fill:#000000;stroke:none;stroke-width:1" />
  </g>
</svg>
