<?xml version="1.0" encoding="UTF-8" standalone="no"?>
<!-- Created with Inkscape (http://www.inkscape.org/) -->
<svg
   xmlns:svg="http://www.w3.org/2000/svg"
   xmlns="http://www.w3.org/2000/svg"
   version="1.0"
   width="40"
   height="50"
   id="svg2480">
  <defs
     id="defs2482" />
  <g
     id="layer1">
    <path
       d="M 20.5443,37.338525 L 19.44566,36.899075 L 19.22594,15.306535 C 19.21489,14.919835 18.72789,14.998915 18.72789,14.998915 L 18.02476,14.998915 C 17.51695,14.998945 17.31828,14.748375 17.31829,14.357735 C 17.32952,13.459665 17.72353,13.299245 18.78648,13.256495 L 21.4232,13.256495 C 21.65522,13.278595 21.98294,13.326505 22.08238,13.901025 C 22.18546,14.496615 21.86266,14.647355 21.86266,14.647355 C 21.70798,14.835185 20.74192,14.711145 20.76402,15.086805 L 20.98375,36.899075 L 20.5443,37.338525 z M 23.33336,22.455715 C 22.59116,22.455735 22.00522,22.299485 21.57555,21.986965 C 20.97364,21.259415 21.6458,20.487985 22.17613,20.697905 C 22.17613,20.697905 22.66908,21.001925 22.9232,20.990875 C 23.65225,20.959175 24.27056,20.575315 24.52448,20.087015 C 24.77837,19.598745 24.72738,19.037575 24.73961,18.647125 C 24.78379,17.214815 24.01751,16.427865 23.72241,15.468655 C 23.63401,15.083185 23.64585,14.565115 23.80211,14.135405 C 23.95835,13.705745 24.26828,13.100555 24.7982,12.817045 C 25.42985,12.450985 26.1222,12.785395 26.11656,13.256495 C 26.11656,13.643195 24.70733,14.323215 25.23766,15.439115 C 25.68069,16.620515 26.38022,17.514335 26.38023,18.647125 C 26.38022,19.272145 26.2728,19.887375 26.05797,20.492825 C 25.84311,21.098315 25.47202,21.576825 24.94469,21.928375 C 24.41733,22.279955 23.88022,22.455735 23.33336,22.455715 L 23.33336,22.455715 z M 16.66664,22.455715 C 17.40884,22.455735 17.99478,22.299485 18.42445,21.986965 C 19.02636,21.259415 18.3542,20.487985 17.82387,20.697905 C 17.82387,20.697905 17.33092,21.001925 17.0768,20.990875 C 16.34775,20.959175 15.72944,20.575315 15.47552,20.087015 C 15.22163,19.598745 15.27262,19.037575 15.26039,18.647125 C 15.21621,17.214815 15.98249,16.427865 16.27759,15.468655 C 16.36599,15.083185 16.35415,14.565115 16.19789,14.135405 C 16.04165,13.705745 15.73172,13.100555 15.2018,12.817045 C 14.57015,12.450985 13.8778,12.785395 13.88344,13.256495 C 13.88344,13.643195 15.29267,14.323215 14.76234,15.439115 C 14.31931,16.620515 13.61978,17.514335 13.61977,18.647125 C 13.61978,19.272145 13.7272,19.887375 13.94203,20.492825 C 14.15689,21.098315 14.52798,21.576825 15.05531,21.928375 C 15.58267,22.279955 16.11978,22.455735 16.66664,22.455715 L 16.66664,22.455715 z"
       id="path2497"
       style="fill:#000000;stroke:none;stroke-width:1" />
  </g>
</svg>
