<?xml version="1.0" encoding="UTF-8" standalone="no"?>
<!-- Created with Inkscape (http://www.inkscape.org/) -->
<svg
   xmlns:svg="http://www.w3.org/2000/svg"
   xmlns="http://www.w3.org/2000/svg"
   version="1.0"
   width="40"
   height="50"
   id="svg2480">
  <defs
     id="defs2482" />
  <g
     id="layer1">
    <path
       d="M 18.044266,13.023244 C 17.660246,13.094814 17.324166,13.171664 17.044266,13.398244 C 16.580226,13.773894 16.794266,14.398244 16.794266,14.398244 C 16.794266,14.398244 17.043936,14.802594 17.231766,14.835744 C 17.817286,14.939074 19.450516,14.241994 21.200516,14.616994 C 21.200516,14.616994 22.138016,14.804494 22.231766,15.398244 C 22.231766,15.398244 22.395956,16.100884 22.372396,16.663874 C 20.660656,15.158124 18.575516,16.148244 18.575516,16.148244 C 17.190866,16.984544 16.538406,18.286934 16.450516,19.429494 C 16.450516,20.132634 16.641916,20.831854 17.013016,21.554494 C 17.384106,22.277164 17.911456,22.974424 18.575516,23.648244 L 15.700516,23.648244 C 15.700516,23.648244 15.366766,23.721434 15.263016,24.116994 C 15.013016,25.070124 15.700516,25.210744 15.700516,25.210744 L 18.106766,25.210744 L 15.700516,34.241994 C 15.700516,34.241994 15.278636,35.804494 15.700516,36.679494 C 15.700516,36.679494 15.872386,37.070114 16.138016,37.116994 C 16.138016,37.116994 16.731766,37.351374 17.231766,36.679494 C 17.431616,36.500714 17.013016,34.835744 19.231766,26.741994 C 19.707976,25.573124 19.950516,25.273244 19.950516,25.273244 C 21.247396,26.945124 21.638016,28.523244 21.638016,28.523244 C 22.106766,29.945124 22.184896,33.570114 22.200516,34.038874 C 22.240196,35.229404 21.528636,36.116994 21.638016,36.460744 C 21.772846,36.884504 22.068176,37.136474 22.763016,36.898244 C 22.956366,36.831954 23.513016,36.163874 23.638016,35.366994 C 24.026096,32.892964 23.721416,30.351304 23.200516,27.866994 C 22.997386,26.898244 21.419266,24.773244 21.419266,24.773244 L 24.294266,24.773244 C 24.294266,24.773244 24.639006,24.723154 24.731766,24.335744 C 24.997396,23.226364 24.294266,23.210744 24.294266,23.210744 L 20.763016,23.210744 C 21.981766,22.460744 23.106766,20.366994 23.106766,20.366994 C 23.817696,19.224434 23.878236,17.007644 23.731766,15.679494 C 23.555976,14.673664 23.184886,13.909984 22.325516,13.304494 C 22.325516,13.304494 21.137856,12.492914 18.044266,13.023244 z M 20.182206,17.217674 C 20.533756,17.217694 20.973396,17.325484 21.307206,17.577044 C 21.639226,17.827254 21.901616,18.280934 21.997396,18.945114 C 22.216146,20.460744 19.888016,22.116994 19.888016,22.116994 C 19.888016,22.116994 19.645826,22.273244 19.450516,22.116994 C 18.581366,21.296694 18.032546,20.357244 18.013016,19.116994 C 18.016916,18.544744 18.522046,17.838794 18.932206,17.623924 C 19.342356,17.409104 19.713446,17.217694 20.182206,17.217674 z"
       id="path2572"
       style="fill:#000000;stroke:none;stroke-width:1" />
  </g>
</svg>
