<?xml version="1.0" encoding="UTF-8" standalone="no"?>
<!-- Created with Inkscape (http://www.inkscape.org/) -->
<svg
   xmlns:svg="http://www.w3.org/2000/svg"
   xmlns="http://www.w3.org/2000/svg"
   version="1.0"
   width="40"
   height="50"
   id="svg2480">
  <defs
     id="defs2482" />
  <g
     id="layer1">
    <path
       d="M 15.49991,36.900204 C 14.95748,36.828884 15.04581,36.446104 15.04581,36.446104 L 15.04581,22.808404 C 15.08487,22.050594 14.56826,21.687314 14.5917,20.757624 C 14.77808,16.210374 14.89444,13.868004 14.5917,13.711724 C 14.81193,13.090794 15.14451,13.019124 15.76358,13.111144 C 15.99491,13.197894 16.41719,13.361864 16.40811,13.711724 C 16.10537,17.657064 16.10537,20.083814 16.40811,20.992004 C 22.01357,20.386554 24.96767,20.386554 25.27041,20.992004 C 25.27041,20.992004 25.49448,21.312284 25.37295,21.665834 C 25.26823,21.970464 25.10927,22.207834 24.81631,22.354304 C 23.60536,22.051584 20.88076,22.129714 16.64248,22.588684 L 16.64248,36.446104 C 16.64248,36.446104 16.69522,37.040834 15.49991,36.900204 z M 18.45889,18.091614 C 18.0292,18.013504 17.72646,17.769364 17.55069,17.359194 C 17.25238,16.453214 17.34561,15.161924 17.34561,15.161924 C 17.42373,14.302574 17.64346,13.745934 18.00479,13.492004 C 18.00479,13.492004 19.04433,13.106414 19.13272,13.946104 L 19.36709,16.670714 L 19.39639,17.329894 C 19.40665,17.664514 19.19528,17.894354 18.91299,18.033014 C 18.74726,18.110354 18.45889,18.091614 18.45889,18.091614 z M 21.6376,17.813294 C 21.04189,17.803544 20.67568,17.691244 20.53897,17.476374 C 20.40224,17.261554 20.31435,16.978354 20.2753,16.626764 L 20.15811,14.693174 C 20.15889,13.911944 20.42666,13.433434 20.7294,13.257624 C 20.7294,13.257624 20.97978,13.073654 21.38858,13.228334 C 21.83052,13.559794 22.01357,14.126794 22.0917,14.751764 L 22.0917,17.359194 C 22.04751,17.801134 21.6376,17.813294 21.6376,17.813294 z M 23.5712,17.813294 C 23.28798,17.725424 23.08779,17.388504 22.97061,16.802544 L 22.97061,14.283014 C 22.9706,13.853354 23.13173,13.511554 23.45401,13.257624 C 23.82966,13.058754 24.3997,13.235524 24.3997,13.235524 C 24.58346,13.420814 24.70888,13.638514 24.78702,14.341614 L 24.81631,17.359194 C 24.75002,17.679604 24.36221,17.813294 24.36221,17.813294 C 23.92027,17.934824 23.5712,17.813294 23.5712,17.813294 z"
       id="path2558"
       style="fill:#000000;stroke:none;stroke-width:1" />
  </g>
</svg>
