<?xml version="1.0" encoding="UTF-8" standalone="no"?>
<!-- Created with Inkscape (http://www.inkscape.org/) -->
<svg
   xmlns:svg="http://www.w3.org/2000/svg"
   xmlns="http://www.w3.org/2000/svg"
   version="1.0"
   width="40"
   height="50"
   id="svg2480">
  <defs
     id="defs2482" />
  <g
     id="layer1">
    <path
       d="M 19.990957,37.434202 C 18.811267,37.785762 18.877677,36.980102 18.877677,36.980102 C 19.180407,23.845342 19.107167,15.861952 18.657957,13.029902 C 18.657957,13.029902 18.606387,12.851302 19.097407,12.590452 C 19.347407,12.457642 19.792717,12.445912 20.034907,12.531852 C 20.449577,12.678992 20.445067,13.029902 20.445067,13.029902 L 20.664787,15.944942 C 20.914787,23.632442 20.975057,29.984062 20.445067,36.980102 C 20.445067,36.980102 20.450657,37.297172 19.990957,37.434202 z M 14.292717,27.707642 C 14.279557,27.160932 14.551507,26.745732 15.069087,26.462522 C 15.069087,26.462522 15.266357,26.328732 15.742917,26.242792 C 15.742917,26.242792 16.874757,26.078722 17.632567,26.125602 C 17.984117,26.164682 18.306277,26.325342 18.423577,26.682242 C 18.790767,27.799432 17.984127,27.810172 17.984127,27.810172 C 16.812247,27.859012 15.796627,28.000612 14.937247,28.234982 C 14.937247,28.234982 14.292717,28.418582 14.292717,27.707642 z M 21.954097,27.575062 C 21.335387,27.243602 21.558347,26.652952 21.558347,26.652952 C 21.597397,26.379522 21.716937,25.790812 22.613027,25.715452 L 24.370847,25.715452 C 24.370847,25.715452 25.315027,25.660712 25.586667,26.242792 C 25.741347,26.574252 25.601317,27.004512 25.601317,27.004512 C 25.601317,27.004512 25.546627,27.495352 25.147207,27.590452 C 24.059597,27.612362 22.312207,27.766902 21.954097,27.575062 z M 14.820067,24.719352 C 14.429437,24.727182 14.253657,24.514292 14.175527,24.221312 L 14.175527,23.547482 C 14.195057,22.967422 15.147207,22.653942 15.742917,22.653922 L 17.530027,22.653922 C 17.889397,22.716422 17.984127,23.108032 17.984127,23.108032 C 18.132567,23.537722 18.058337,23.840452 17.925527,23.957642 C 17.404017,24.417802 16.577867,24.626592 15.523187,24.675412 L 14.820067,24.719352 z M 21.761467,23.215452 C 21.714587,21.832642 22.451897,21.980102 22.451897,21.980102 L 24.370847,21.848262 C 24.972397,21.817022 25.287787,22.137402 25.366937,22.434202 C 25.554437,23.137332 25.308347,23.313102 25.308347,23.313102 C 24.722397,23.664682 23.773177,23.723272 22.523187,23.801392 C 22.072107,23.844652 21.777777,23.542152 21.761467,23.215452 z M 14.761467,20.910762 C 14.230217,20.895132 14.175527,20.412712 14.175527,20.412712 C 14.175527,20.412712 14.143497,19.569082 14.175527,19.270142 C 14.198967,18.973262 17.909897,18.922472 17.933337,19.367792 C 17.933337,20.033022 17.905997,20.207652 17.749747,20.442012 C 17.593497,20.676402 17.280997,20.793592 16.812247,20.793572 L 14.761467,20.910762 z M 22.085687,20.500602 C 21.538807,20.414662 21.558347,19.973262 21.558347,19.973262 C 21.558337,19.660782 21.597397,19.387342 21.675527,19.152952 C 21.753647,18.918592 21.876697,18.664682 22.232177,18.625602 L 25.366937,18.625602 C 25.366937,18.625602 25.756647,18.581662 25.821037,19.079712 C 25.946037,20.189092 25.366937,20.192992 25.366937,20.192992 L 22.905997,20.412712 L 22.085687,20.500602 z"
       id="path2683"
       style="fill:#000000;stroke:none;stroke-width:1" />
  </g>
</svg>
