<?xml version="1.0" encoding="UTF-8" standalone="no"?>
<!-- Created with Inkscape (http://www.inkscape.org/) -->
<svg
   xmlns:svg="http://www.w3.org/2000/svg"
   xmlns="http://www.w3.org/2000/svg"
   version="1.0"
   width="40"
   height="50"
   id="svg2480">
  <defs
     id="defs2482" />
  <g
     id="layer1">
    <path
       d="M 22.538627,37.315137 C 21.522157,37.514007 21.396047,36.861037 21.396047,36.861037 L 20.941947,33.902057 L 20.634327,32.627637 C 20.009317,30.987027 19.355027,29.898157 18.671437,29.361037 C 16.729077,31.365297 15.850137,35.112167 15.712457,36.626667 C 15.292617,37.377967 14.534867,37.132667 14.534867,37.132667 C 13.972517,37.159537 13.896047,36.626667 13.896047,36.626667 C 13.896047,36.626667 14.275167,34.054517 14.584527,32.993857 C 15.484937,30.146207 17.982967,26.636427 17.982967,26.636427 C 19.506397,26.939177 20.722207,28.150107 21.630427,30.269247 C 21.630427,30.269247 22.512447,32.078317 22.860147,34.743967 C 22.926437,35.252197 22.992727,36.861037 22.992727,36.861037 C 22.992727,36.861037 22.943757,37.235877 22.538627,37.315137 z M 24.032767,30.752637 C 23.631347,30.680587 23.368697,30.474327 23.212457,30.269247 C 23.212457,30.269247 22.971737,29.880317 23.446827,29.361037 C 23.446827,29.361037 24.785787,28.272597 25.028857,27.764357 C 25.538707,27.093527 24.154917,25.435267 24.574757,24.131547 C 24.634437,23.437657 25.258337,22.007537 25.717337,21.861037 C 25.717337,21.861037 26.600627,21.588807 26.845267,22.315137 C 26.966797,22.723937 25.994657,24.145937 26.171437,25.493857 C 26.349747,26.705407 26.930157,27.033837 26.903857,27.705767 C 26.861387,28.772707 25.792457,30.480277 24.809137,30.723347 C 24.809137,30.723347 24.463657,30.829977 24.032767,30.752637 z M 22.758357,25.947957 L 14.350147,25.728227 C 13.886107,25.684037 13.896047,25.274127 13.896047,25.274127 C 14.355027,23.457737 14.130417,19.893287 13.222217,14.580767 C 13.222217,14.580767 13.095277,14.166707 13.095277,13.932327 C 13.095277,13.500897 13.275927,13.306377 13.676327,13.218467 C 14.428277,13.218487 14.882377,13.521217 15.038627,14.126667 C 15.790577,19.126687 16.015187,22.388397 15.712457,23.911817 L 15.712457,24.131547 C 15.712457,24.131547 16.478137,24.596827 17.074757,23.911817 L 16.166557,13.672567 C 16.166557,13.672567 16.183157,13.045617 16.620657,12.998737 C 17.680527,12.822097 17.998577,13.536847 17.982967,14.361037 L 18.671437,23.911817 C 18.759827,24.353757 19.345267,24.131547 19.345267,24.131547 L 19.814017,13.452837 C 19.814017,13.452837 19.801317,12.811237 20.941947,12.998737 C 21.327707,13.062147 21.396047,13.452837 21.396047,13.452837 L 20.941947,24.131547 C 21.096627,24.463007 21.396047,24.131547 21.396047,24.131547 C 22.001507,17.012427 22.621337,13.624107 22.758357,13.452837 C 22.904827,12.954817 23.192917,12.686257 23.622607,12.647177 C 24.013227,12.647197 24.330607,12.837627 24.574757,13.218467 C 24.574757,13.218467 23.691577,17.181047 23.446827,18.902057 C 23.225117,20.461117 22.992727,24.131547 22.992727,24.131547 C 22.931057,24.996467 22.906017,25.378327 22.758357,25.947957 L 22.758357,25.947957 z"
       id="path2489"
       style="fill:#000000;stroke:none;stroke-width:1" />
  </g>
</svg>
