<?xml version="1.0" encoding="UTF-8" standalone="no"?>
<!-- Created with Inkscape (http://www.inkscape.org/) -->
<svg
   xmlns:svg="http://www.w3.org/2000/svg"
   xmlns="http://www.w3.org/2000/svg"
   version="1.0"
   width="40"
   height="50"
   id="svg2480">
  <defs
     id="defs2482" />
  <g
     id="layer1">
    <path
       d="M 14.759748,13.015625 C 14.113198,13.015625 14.322248,14.140625 14.322248,14.140625 C 14.322238,14.443385 14.839818,14.578145 15.884748,14.578125 L 15.384748,15.578125 L 14.978498,16.609375 C 14.978498,16.609375 14.103498,20.468675 14.103498,20.859375 C 14.154658,21.319785 14.601548,21.443375 15.197248,21.296875 C 15.509748,21.003915 15.368728,20.640625 16.072248,20.640625 L 18.572248,20.640625 L 18.790998,36.515625 L 19.915998,36.984375 L 20.353498,36.515625 L 20.353498,17.578125 C 20.353488,16.835965 20.197238,16.113305 19.884748,15.390625 C 19.572238,14.667985 19.150368,14.070335 18.603498,13.640625 C 18.056618,13.210965 17.517548,13.015655 17.009748,13.015625 L 14.759748,13.015625 z M 17.384748,14.796865 C 18.494118,15.359375 18.572248,16.609375 18.572248,16.609375 C 18.650378,17.687505 18.572248,19.046875 18.572248,19.046875 L 15.962868,19.046875 L 16.150368,18.046875 C 16.150368,18.046875 16.540998,15.437495 17.384748,14.796865 z M 22.237998,23.285375 C 21.675488,23.730705 20.713478,23.311985 21.022168,22.646695 C 21.131548,22.318565 22.336618,21.140835 22.336618,21.140835 C 20.296578,18.521565 23.533958,15.959915 23.059288,14.683805 C 22.900818,14.034815 21.426468,14.826385 20.676468,14.795135 C 20.250438,14.775485 20.222368,14.355675 20.222368,14.355675 C 20.222358,13.603745 20.513318,13.428215 21.256548,13.242405 C 21.756548,13.117405 23.252528,13.068045 23.717478,13.242405 C 24.592478,13.570535 24.611038,14.135955 24.611038,14.135955 C 24.782918,14.760955 24.376658,15.609585 24.376658,15.609585 C 23.388368,17.715075 22.579768,19.229725 23.419628,20.059785 L 24.156938,18.618375 C 24.447938,18.024635 25.617408,18.293855 25.379588,18.964085 C 25.207708,19.448465 24.298538,20.891815 24.298538,20.891815 L 25.636428,21.855685 C 26.253598,22.316635 25.654008,23.312645 25.065138,23.086155 C 24.862008,23.008025 23.434288,21.989465 23.434288,21.989465 L 22.237998,23.285375 z"
       id="path2519"
       style="fill:#000000;stroke:none;stroke-width:1" />
  </g>
</svg>
