<?xml version="1.0" encoding="UTF-8" standalone="no"?>
<!-- Created with Inkscape (http://www.inkscape.org/) -->
<svg
   xmlns:svg="http://www.w3.org/2000/svg"
   xmlns="http://www.w3.org/2000/svg"
   version="1.0"
   width="40"
   height="50"
   id="svg2480">
  <defs
     id="defs2482" />
  <g
     id="layer1">
    <path
       d="M 15.453125,13.29694 C 14.558195,13.28589 14.546875,13.98444 14.546875,13.98444 L 14.546875,26.70319 L 14.765625,35.10944 C 14.755865,35.4317 14.898435,35.76959 15.171875,36.14069 C 15.445315,36.51178 16.070315,36.70319 17.046875,36.70319 L 24.546875,36.48444 C 25.054675,36.13288 25.296865,35.67975 25.296875,35.17194 C 25.296875,35.17194 25.307005,34.67384 24.765625,34.64069 L 16.578125,34.89069 L 16.140625,23.98444 L 23.512155,23.50464 C 23.668395,24.11013 24.013655,24.42195 24.765625,24.42194 C 24.765625,24.42194 25.114735,24.43743 25.203125,23.98444 L 25.453125,17.17194 C 25.453105,15.04306 24.851545,13.81845 23.640625,13.51569 L 15.453125,13.29694 z M 16.140625,14.89069 L 22.484375,14.89069 C 23.275885,14.9131 23.617175,15.37899 23.734375,15.82819 C 23.851555,16.27743 23.890615,16.71102 23.890625,17.14069 L 23.640625,21.95319 L 16.140625,22.39069 L 16.140625,14.89069 z"
       id="path2689"
       style="fill:#000000;stroke:none;stroke-width:1" />
  </g>
</svg>
