<?xml version="1.0" encoding="UTF-8" standalone="no"?>
<!-- Created with Inkscape (http://www.inkscape.org/) -->
<svg
   xmlns:svg="http://www.w3.org/2000/svg"
   xmlns="http://www.w3.org/2000/svg"
   version="1.0"
   width="40"
   height="50"
   id="svg2480">
  <defs
     id="defs2482" />
  <g
     id="layer1">
    <path
       d="M 20.834568,37.295381 C 19.707617,37.527401 19.69199,36.841281 19.69199,36.841281 L 19.472263,33.662571 L 19.472263,25.474101 C 19.472263,25.474101 19.462326,25.113901 19.926365,25.019991 C 20.994711,24.803781 21.054294,25.474101 21.054294,25.474101 L 21.288669,32.974101 L 21.288669,36.841281 C 21.288669,36.841281 21.195756,37.221021 20.834568,37.295381 z M 15.605076,36.387181 C 15.142704,36.284041 15.150974,35.933081 15.150974,35.933081 C 15.150974,35.933081 14.985116,30.334771 15.370701,27.978981 C 15.601556,26.568531 16.764255,23.423311 16.764255,23.423311 L 15.97324,23.540501 C 15.787688,23.550281 15.607024,23.486801 15.431248,23.350071 C 15.255462,23.213361 15.219541,23.010701 15.182224,22.749481 C 15.119724,22.311981 15.605076,22.061011 15.605076,22.061011 C 17.003912,21.523741 18.559087,21.425171 20.037099,21.425171 C 21.622483,21.425171 22.984209,21.459831 24.511326,21.768041 C 24.511326,21.768041 25.090993,21.908001 25.141209,22.295381 C 25.295889,23.488621 24.896034,23.396621 24.896034,23.396621 C 24.509335,23.418721 23.364898,23.181991 23.364898,23.181991 L 23.778904,24.346171 C 23.778904,24.346171 25.061183,27.311231 25.375584,28.652811 C 25.814189,30.524381 26.049412,35.024881 26.049412,35.024881 C 26.049412,35.024881 26.070397,35.599271 25.59531,35.698711 L 25.097263,35.771951 C 24.843343,35.771951 24.638265,35.728001 24.482029,35.640111 C 24.325766,35.552221 24.242758,35.420391 24.233005,35.244601 C 24.233005,35.244601 24.110076,31.239161 23.778904,29.561011 C 23.391169,27.596251 21.742771,23.203591 21.742771,23.203591 C 21.664646,22.922341 18.705662,22.874481 18.455662,23.249491 C 18.455662,23.249491 17.219434,26.990451 16.96738,28.652811 C 16.639793,30.813331 16.733005,35.933081 16.733005,35.933081 C 16.733005,35.933081 16.620701,36.613741 15.605076,36.387181 z M 17.182396,20.814151 C 17.182396,20.814151 16.605544,20.879471 16.280148,20.499841 C 16.014983,20.367261 16.063842,18.391981 15.605076,18.208471 C 15.27362,18.164281 14.507936,19.958591 14.242771,20.024881 C 13.679665,20.454671 13.044736,20.148071 12.880466,19.570781 C 12.880466,19.570781 12.790834,18.936431 13.100193,18.428201 L 14.696873,15.937961 L 13.87656,14.502421 L 13.730076,14.062961 C 13.730073,13.867671 13.778901,13.667481 13.87656,13.462381 C 13.974213,13.257321 14.167629,13.091331 14.462498,12.978981 C 15.257993,12.625431 15.605076,13.433081 15.605076,13.433081 L 17.187107,17.519991 C 17.948819,14.795411 18.554287,13.281741 19.003513,12.978981 L 19.325779,12.891091 C 19.501552,12.891111 19.696864,12.964351 19.911716,13.110811 C 20.126551,13.257321 20.282801,13.437991 20.380466,13.652811 L 22.196873,17.754371 L 23.778904,13.433081 C 23.91561,13.110841 24.076742,12.900881 24.262302,12.803201 C 24.447836,12.705571 24.618734,12.656741 24.774998,12.656711 C 25.048421,12.656741 25.211373,12.771111 25.484825,13.132421 C 25.484825,13.132421 25.683699,13.510291 25.484825,14.040621 L 24.401089,16.444951 C 24.401089,16.444951 26.883875,18.507891 26.972263,18.662571 C 27.513139,19.609101 26.503513,19.790501 26.503513,19.790501 C 26.088056,19.945201 24.60533,18.588431 23.778904,17.974101 L 22.950396,20.411451 C 22.486358,21.206941 21.861203,20.873741 21.861203,20.873741 C 21.139589,20.930971 20.212097,16.047201 19.436762,16.047201 C 18.713966,16.030081 18.375638,20.814151 17.182396,20.814151 z"
       id="path2539"
       style="fill:#000000;stroke:none;stroke-width:1" />
  </g>
</svg>
