<?xml version="1.0" encoding="UTF-8" standalone="no"?>
<!-- Created with Inkscape (http://www.inkscape.org/) -->
<svg
   xmlns:svg="http://www.w3.org/2000/svg"
   xmlns="http://www.w3.org/2000/svg"
   version="1.0"
   width="40"
   height="50"
   id="svg2480">
  <defs
     id="defs2482" />
  <g
     id="layer1">
    <path
       d="M 16.107753,12.88684 C 16.107753,12.88684 15.542713,12.90037 15.310873,13.18372 C 14.889003,13.69934 13.347223,16.7692 13.248383,16.96496 C 12.373373,18.48059 13.357753,18.57434 13.357753,18.57434 C 13.357753,18.57434 16.342133,18.26184 15.670253,18.79309 C 14.992513,19.42397 14.551203,19.8683 14.264003,20.21497 C 14.042323,20.48256 13.701493,20.78529 13.701503,20.98059 C 13.701493,21.17592 13.775713,21.37905 13.951503,21.57434 C 14.127283,21.76967 14.365563,21.85561 14.639003,21.85559 C 14.639003,21.85559 15.022003,21.78037 15.264003,21.60559 C 15.545253,21.40246 16.795253,19.94934 16.795253,19.94934 C 17.139003,19.57434 17.264003,20.16809 17.264003,20.16809 C 18.445633,23.92787 19.287433,27.2931 19.795253,30.26184 L 20.076503,32.66809 L 20.451503,36.66809 C 20.451503,36.66809 20.662443,37.32434 21.451503,37.04309 C 21.899403,36.8833 22.013993,36.10949 22.170253,35.51184 C 22.955083,30.80065 24.164063,25.89344 25.045253,21.10559 C 25.211833,20.23949 25.457853,19.14957 25.732753,18.79309 C 26.173073,18.34174 26.557543,18.50334 26.933193,18.21608 C 26.933193,18.21608 27.582603,16.98059 26.420253,16.98059 L 18.857753,16.98059 C 19.551113,15.24234 19.904613,14.44936 19.920253,14.13684 C 19.929033,13.9613 19.883133,13.72671 19.764003,13.54309 C 19.539383,13.26968 19.310873,13.13687 19.076503,13.13684 C 18.861653,13.13687 18.667963,13.12678 18.482753,13.32434 C 18.248373,13.57434 17.045253,16.98059 17.045253,16.98059 L 15.420253,16.98059 L 16.795253,13.66809 C 16.935873,13.13687 16.576493,12.88687 16.107753,12.88684 z M 18.389003,18.57434 L 23.920253,18.57434 C 23.920253,18.57434 23.617803,19.54689 23.517793,19.97144 C 22.721553,23.35166 21.420253,31.35559 21.420253,31.35559 C 20.873363,27.21498 19.824543,22.07045 18.389003,18.57434 z"
       id="path2533"
       style="fill:#000000;stroke:none;stroke-width:1" />
  </g>
</svg>
