<?xml version="1.0" encoding="UTF-8" standalone="no"?>
<!-- Created with Inkscape (http://www.inkscape.org/) -->
<svg
   xmlns:svg="http://www.w3.org/2000/svg"
   xmlns="http://www.w3.org/2000/svg"
   version="1.0"
   width="40"
   height="50"
   id="svg2480">
  <defs
     id="defs2482" />
  <g
     id="layer1">
    <path
       d="M 24.22607,36.997311 C 23.14794,37.278561 23.11279,36.557861 23.11279,36.557861 L 23.11279,25.000243 C 22.51708,24.697523 20.66161,24.770763 17.54639,25.219973 C 17.54639,25.219973 17.40284,26.396723 16.49658,26.381093 C 15.75441,26.376903 15.70068,26.181893 15.5542,25.439693 L 15.33447,21.220943 L 15.33447,13.442623 C 15.33447,13.442623 15.411,13.172543 15.77393,13.003173 C 16.00831,12.893793 16.18212,12.940673 16.44775,13.003173 C 16.87438,13.156023 16.88721,13.442623 16.88721,13.442623 L 16.88721,18.115473 C 17.77587,17.519793 19.03564,17.221943 20.6665,17.221923 L 23.55225,17.221923 C 23.55225,17.221923 24.09623,17.331793 24.22607,17.881103 C 24.4292,18.740483 23.77197,18.994383 23.77197,18.994383 C 23.20947,19.041263 20.7251,18.712153 19.55322,18.774653 C 18.6404,18.835313 18.00049,19.214113 18.00049,19.214113 C 17.5786,19.428963 17.36865,19.549083 16.66748,19.668213 C 16.66748,19.668213 16.8413,23.479733 17.10693,23.667233 L 23.9917,23.213133 C 24.66358,23.181883 24.66553,23.886963 24.66553,23.886963 L 24.66553,36.557861 C 24.66553,36.557861 24.60676,36.898001 24.22607,36.997311 z"
       id="path2616"
       style="fill:#000000;stroke:none;stroke-width:1" />
  </g>
</svg>
