solid OpenSCAD_Model
  facet normal -1 0 0
    outer loop
      vertex 0 0 0
      vertex 0 2.62 5
      vertex 0 2.62 0
    endloop
  endfacet
  facet normal -1 -0 0
    outer loop
      vertex 0 2.62 5
      vertex 0 0 0
      vertex 0 0 5
    endloop
  endfacet
  facet normal 0 0 1
    outer loop
      vertex 23.12 2.62 5
      vertex 22.96 2.46 5
      vertex 23.12 0 5
    endloop
  endfacet
  facet normal 0 0 1
    outer loop
      vertex 23.12 2.62 5
      vertex 0.16 2.46 5
      vertex 22.96 2.46 5
    endloop
  endfacet
  facet normal 0 0 1
    outer loop
      vertex 0.16 2.46 5
      vertex 0 2.62 5
      vertex 0.16 0.16 5
    endloop
  endfacet
  facet normal -0 0 1
    outer loop
      vertex 0 2.62 5
      vertex 0.16 2.46 5
      vertex 23.12 2.62 5
    endloop
  endfacet
  facet normal -0 0 1
    outer loop
      vertex 22.96 0.16 5
      vertex 23.12 0 5
      vertex 22.96 2.46 5
    endloop
  endfacet
  facet normal -0 0 1
    outer loop
      vertex 0.16 0.16 5
      vertex 23.12 0 5
      vertex 22.96 0.16 5
    endloop
  endfacet
  facet normal 0 0 1
    outer loop
      vertex 0.16 0.16 5
      vertex 0 0 5
      vertex 23.12 0 5
    endloop
  endfacet
  facet normal 0 0 1
    outer loop
      vertex 0 0 5
      vertex 0.16 0.16 5
      vertex 0 2.62 5
    endloop
  endfacet
  facet normal 1 -0 0
    outer loop
      vertex 23.12 0 5
      vertex 23.12 2.62 0
      vertex 23.12 2.62 5
    endloop
  endfacet
  facet normal 1 0 0
    outer loop
      vertex 23.12 2.62 0
      vertex 23.12 0 5
      vertex 23.12 0 0
    endloop
  endfacet
  facet normal 0 1 -0
    outer loop
      vertex 23.12 2.62 0
      vertex 0 2.62 5
      vertex 23.12 2.62 5
    endloop
  endfacet
  facet normal 0 1 0
    outer loop
      vertex 0 2.62 5
      vertex 23.12 2.62 0
      vertex 0 2.62 0
    endloop
  endfacet
  facet normal 0 0 -1
    outer loop
      vertex 0 0 0
      vertex 23.12 2.62 0
      vertex 23.12 0 0
    endloop
  endfacet
  facet normal -0 0 -1
    outer loop
      vertex 23.12 2.62 0
      vertex 0 0 0
      vertex 0 2.62 0
    endloop
  endfacet
  facet normal 0 -1 0
    outer loop
      vertex 0 0 0
      vertex 23.12 0 5
      vertex 0 0 5
    endloop
  endfacet
  facet normal 0 -1 -0
    outer loop
      vertex 23.12 0 5
      vertex 0 0 0
      vertex 23.12 0 0
    endloop
  endfacet
  facet normal 1 -0 0
    outer loop
      vertex 0.16 0.16 5
      vertex 0.16 2.46 0.16
      vertex 0.16 2.46 5
    endloop
  endfacet
  facet normal 1 0 0
    outer loop
      vertex 0.16 2.46 0.16
      vertex 0.16 0.16 5
      vertex 0.16 0.16 0.16
    endloop
  endfacet
  facet normal -1 0 0
    outer loop
      vertex 22.96 0.16 0.16
      vertex 22.96 2.46 5
      vertex 22.96 2.46 0.16
    endloop
  endfacet
  facet normal -1 -0 0
    outer loop
      vertex 22.96 2.46 5
      vertex 22.96 0.16 0.16
      vertex 22.96 0.16 5
    endloop
  endfacet
  facet normal -0 0 1
    outer loop
      vertex 0.16 2.46 0.16
      vertex 22.96 0.16 0.16
      vertex 22.96 2.46 0.16
    endloop
  endfacet
  facet normal 0 0 1
    outer loop
      vertex 22.96 0.16 0.16
      vertex 0.16 2.46 0.16
      vertex 0.16 0.16 0.16
    endloop
  endfacet
  facet normal 0 1 -0
    outer loop
      vertex 22.96 0.16 0.16
      vertex 0.16 0.16 5
      vertex 22.96 0.16 5
    endloop
  endfacet
  facet normal 0 1 0
    outer loop
      vertex 0.16 0.16 5
      vertex 22.96 0.16 0.16
      vertex 0.16 0.16 0.16
    endloop
  endfacet
  facet normal 0 -1 0
    outer loop
      vertex 0.16 2.46 0.16
      vertex 22.96 2.46 5
      vertex 0.16 2.46 5
    endloop
  endfacet
  facet normal 0 -1 -0
    outer loop
      vertex 22.96 2.46 5
      vertex 0.16 2.46 0.16
      vertex 22.96 2.46 0.16
    endloop
  endfacet
endsolid OpenSCAD_Model
